<svg width="24" height="19" viewBox="0 0 24 19" fill="none" xmlns="http://www.w3.org/2000/svg">
<path d="M3.66897 16.8452C3.57711 18.9186 0.692263 18.9179 0.600041 16.8452C0.60618 15.9875 1.2982 15.3009 2.1345 15.3009C2.97078 15.3009 3.66285 15.9877 3.66897 16.8452ZM1.73698 12.3421L1.73641 12.06C1.82031 12.1389 1.91769 12.2031 2.02353 12.2489L1.73698 12.3421Z" stroke="#444444" stroke-width="1.2"/>
<path d="M10.1288 7.83772L3.36156 10.0255L3.34741 5.30884L10.1146 3.12111L10.1288 7.83772Z" stroke="#444444" stroke-width="1.2"/>
<path d="M22.5628 8.88618C22.5752 8.83182 22.5833 8.77487 22.5864 8.71649L22.8736 8.99852L22.4722 9.1288C22.514 9.04986 22.5441 8.96748 22.5628 8.88618ZM12.334 12.4197L12.0629 12.5077V12.2293C12.1419 12.3073 12.2338 12.3718 12.334 12.4197ZM21.3419 1.2648L22.0806 1.02602L21.7686 1.71874C21.7275 1.63083 21.675 1.55126 21.6157 1.48347C21.5423 1.39963 21.4492 1.32338 21.3419 1.2648Z" stroke="#444444" stroke-width="1.2"/>
<path d="M19.8012 8.23768L13.7058 10.2101L13.6916 5.49155C14.5692 5.20485 15.9749 4.74578 17.3132 4.30871C17.9333 4.1062 18.5389 3.90842 19.0709 3.7347L18.1482 5.70995C18.1482 5.71003 18.1482 5.71011 18.1481 5.71019C18.1481 5.7102 18.1481 5.71021 18.1481 5.71022C17.974 6.08287 18.0526 6.52714 18.3487 6.81658C18.3487 6.81661 18.3487 6.81664 18.3488 6.81667C18.3489 6.8168 18.349 6.81693 18.3492 6.81706L19.8012 8.23768Z" stroke="#444444" stroke-width="1.2"/>
</svg>
