<svg width="10" height="19" viewBox="0 0 10 19" fill="none" xmlns="http://www.w3.org/2000/svg">
<path fill-rule="evenodd" clip-rule="evenodd" d="M3.71727 1.49826C4.58092 0.538941 5.75229 0 6.97368 0H9.3421C9.70545 0 9.99999 0.327177 9.99999 0.730769V4.23846C9.99999 4.64205 9.70545 4.96923 9.3421 4.96923H6.97368C6.93878 4.96923 6.90532 4.98463 6.88064 5.01204C6.85596 5.03945 6.8421 5.07662 6.8421 5.11538V7.01538H9.3421C9.54469 7.01538 9.73598 7.11906 9.86066 7.29643C9.98533 7.4738 10.0295 7.70508 9.98035 7.92339L9.19088 11.4311C9.11766 11.7564 8.85451 11.9846 8.55263 11.9846H6.8421V18.2692C6.8421 18.6728 6.54755 19 6.18421 19H3.02631C2.66297 19 2.36842 18.6728 2.36842 18.2692V11.9846H0.657894C0.294549 11.9846 0 11.6574 0 11.2538V7.74615C0 7.34256 0.294549 7.01538 0.657894 7.01538H2.36842V5.11538C2.36842 3.7587 2.85362 2.45758 3.71727 1.49826ZM6.97368 1.46154C6.10126 1.46154 5.26457 1.8465 4.64767 2.53173C4.03078 3.21695 3.68421 4.14632 3.68421 5.11538V7.74615C3.68421 8.14975 3.38966 8.47692 3.02631 8.47692H1.31579V10.5231H3.02631C3.38966 10.5231 3.68421 10.8503 3.68421 11.2538V17.5385H5.52631V11.2538C5.52631 10.8503 5.82086 10.5231 6.18421 10.5231H8.03896L8.49949 8.47692H6.18421C5.82086 8.47692 5.52631 8.14975 5.52631 7.74615V5.11538C5.52631 4.689 5.6788 4.28008 5.95024 3.97857C6.22167 3.67707 6.58981 3.50769 6.97368 3.50769H8.68421V1.46154H6.97368Z" fill="#444444"/>
</svg>
