<svg width="19" height="19" viewBox="0 0 19 19" fill="none" xmlns="http://www.w3.org/2000/svg">
<path d="M13.5245 4.47757C13.5245 3.9228 13.975 3.47308 14.5307 3.47308C15.0863 3.47308 15.5368 3.9228 15.5368 4.47757C15.5368 5.03233 15.0863 5.48205 14.5307 5.48205C13.975 5.48205 13.5245 5.03233 13.5245 4.47757Z" fill="#444444"/>
<path fill-rule="evenodd" clip-rule="evenodd" d="M9.49999 4.72869C6.86055 4.72869 4.72086 6.86488 4.72086 9.5C4.72086 12.1351 6.86055 14.2713 9.49999 14.2713C12.1394 14.2713 14.2791 12.1351 14.2791 9.5C14.2791 6.86488 12.1394 4.72869 9.49999 4.72869ZM6.23005 9.5C6.23005 7.69702 7.69405 6.23542 9.49999 6.23542C11.3059 6.23542 12.7699 7.69702 12.7699 9.5C12.7699 11.303 11.3059 12.7646 9.49999 12.7646C7.69405 12.7646 6.23005 11.303 6.23005 9.5Z" fill="#444444"/>
<path fill-rule="evenodd" clip-rule="evenodd" d="M14.7905 0.291884C11.3027 -0.0972948 7.69734 -0.0972948 4.20951 0.291884C2.18511 0.51777 0.550814 2.10989 0.31281 4.1415C-0.10427 7.7017 -0.10427 11.2983 0.31281 14.8585C0.550814 16.8901 2.18511 18.4822 4.20951 18.7081C7.69735 19.0973 11.3027 19.0973 14.7905 18.7081C16.8149 18.4822 18.4492 16.8901 18.6872 14.8585C19.1043 11.2983 19.1043 7.7017 18.6872 4.1415C18.4492 2.10989 16.8149 0.51777 14.7905 0.291884ZM4.37714 1.78929C7.75357 1.41254 11.2464 1.41254 14.6229 1.78929C15.9611 1.93862 17.0331 2.99294 17.1882 4.31653C17.5917 7.76044 17.5917 11.2396 17.1882 14.6835C17.0331 16.0071 15.9611 17.0614 14.6229 17.2107C11.2464 17.5875 7.75357 17.5875 4.37714 17.2107C3.03887 17.0614 1.96685 16.0071 1.81179 14.6835C1.40834 11.2396 1.40834 7.76044 1.81179 4.31653C1.96685 2.99294 3.03887 1.93862 4.37714 1.78929Z" fill="#444444"/>
</svg>
