<svg width="19" height="19" viewBox="0 0 19 19" fill="none" xmlns="http://www.w3.org/2000/svg">
<path fill-rule="evenodd" clip-rule="evenodd" d="M9.5 0C4.25329 0 0 4.25329 0 9.5C0 14.7467 4.25329 19 9.5 19C14.7467 19 19 14.7467 19 9.5C19 4.25329 14.7467 0 9.5 0ZM1.46154 9.5C1.46154 5.06048 5.06048 1.46154 9.5 1.46154C13.9395 1.46154 17.5385 5.06048 17.5385 9.5C17.5385 13.9395 13.9395 17.5385 9.5 17.5385C8.66471 17.5385 7.85917 17.4111 7.10176 17.1746C7.51352 16.528 7.841 15.8314 8.07618 15.1017L8.57949 13.1752C8.78744 13.4719 9.06623 13.712 9.39054 13.8737C9.71486 14.0353 10.0744 14.1134 10.4366 14.1008C12.9069 14.1008 14.6424 11.8561 14.6424 9.06763C14.6424 6.38906 12.4556 4.38736 9.64977 4.38736C6.15547 4.38736 4.2984 6.73618 4.2984 9.28747C4.2984 10.4792 4.929 11.9545 5.94142 12.4289C6.09183 12.4983 6.19018 12.4289 6.21332 12.3189C6.23645 12.2091 6.37515 11.6543 6.43884 11.3995C6.44883 11.3592 6.44889 11.3165 6.43881 11.2762C6.42872 11.2359 6.40891 11.1986 6.3811 11.1677C5.99861 10.6288 5.79614 9.98294 5.80257 9.32219C5.80057 8.84788 5.89483 8.3781 6.07965 7.94128C6.26447 7.50446 6.53601 7.10969 6.87782 6.78086C7.21963 6.45202 7.62462 6.19597 8.06826 6.02819C8.51191 5.86041 8.98498 5.7844 9.45885 5.80475C9.9027 5.77879 10.3471 5.84563 10.7637 6.001C11.1802 6.15637 11.5599 6.39687 11.8783 6.70714C12.1967 7.01742 12.447 7.39066 12.6132 7.80307C12.7793 8.21547 12.8577 8.65797 12.8432 9.10235C12.8432 11.2892 11.7325 12.8107 10.2977 12.8107C10.1124 12.8249 9.92632 12.7943 9.75532 12.7214C9.58432 12.6485 9.43341 12.5354 9.31535 12.3918C9.1973 12.2482 9.11558 12.0783 9.07712 11.8965C9.03865 11.7146 9.04457 11.5261 9.09438 11.347C9.17661 11.0058 9.28513 10.6543 9.39087 10.3119C9.58274 9.69047 9.76547 9.09865 9.76547 8.6511C9.7855 8.50573 9.77387 8.35775 9.73137 8.21729C9.68888 8.07683 9.61653 7.94722 9.51928 7.83733C9.42203 7.72745 9.30217 7.63988 9.16792 7.58062C9.03368 7.52137 8.88821 7.49184 8.74148 7.49405C7.93155 7.49405 7.27781 8.33869 7.27781 9.46103C7.27179 9.85764 7.34659 10.2513 7.49765 10.6181L6.54308 14.6678C6.42614 15.433 6.42589 16.2116 6.54232 16.9769C5.90843 16.7259 5.31407 16.3967 4.77115 16.0011C3.81911 15.3056 3.0236 14.4057 2.44848 13.3578C2.22223 12.9456 2.03361 12.5169 1.88343 12.0768C1.60986 11.2679 1.46154 10.4013 1.46154 9.5Z" fill="#444444"/>
</svg>
