<svg width="28" height="15" viewBox="0 0 28 15" fill="none" xmlns="http://www.w3.org/2000/svg">
<path d="M1.11422 8.53655L1.11414 8.53647C1.07293 8.49667 1.03411 8.47648 0.951167 8.47648C0.884171 8.47648 0.84754 8.49174 0.801185 8.53651L0.801146 8.53655C0.761008 8.5753 0.75 8.60068 0.75 8.65769V12.307C0.75 12.3803 0.763385 12.4098 0.76627 12.4156L0.766435 12.4159C0.768132 12.4194 0.773461 12.4303 0.800712 12.4489L1.11422 8.53655ZM1.11422 8.53655C1.15431 8.57527 1.16534 8.60063 1.16534 8.65769V12.307C1.16534 12.3884 1.16012 12.4473 1.15392 12.4877C1.12951 12.4955 1.09626 12.5043 1.05242 12.5127M1.11422 8.53655L1.05242 12.5127M1.05242 12.5127C0.969988 12.5265 0.898254 12.5155 0.800788 12.449L1.05242 12.5127ZM9.94137 14.25C9.84663 14.25 9.77667 14.243 9.7272 14.2342V13.5578H9.72717V1.72399C9.72717 1.50127 9.79157 1.41121 9.86789 1.34902L9.86791 1.349C9.94464 1.28647 9.99493 1.26628 10.0181 1.25974C10.0366 1.25452 10.0499 1.25405 10.07 1.25877L10.079 1.26087L10.0844 1.262C10.1085 1.30609 10.1555 1.43793 10.1555 1.72399V14.2342C10.106 14.243 10.0361 14.25 9.94137 14.25ZM26.1839 13.2134L26.7036 13.7542L26.1839 13.2134C25.4607 13.9084 24.6118 14.2498 23.5969 14.25C23.5966 14.25 23.5963 14.25 23.5961 14.25L12.7761 14.238V0.981541C12.7761 0.946836 12.7774 0.91741 12.7794 0.892782C13.2465 0.797201 13.7074 0.75 14.1629 0.75C15.3733 0.75 16.4907 1.02383 17.5266 1.56959L17.8761 0.906315L17.5267 1.56959C18.5673 2.11782 19.4003 2.85991 20.0371 3.79955C20.6736 4.73859 21.0407 5.76822 21.1423 6.90008L21.2332 7.91419L22.1748 7.52659C22.6099 7.34745 23.077 7.25588 23.583 7.25588C24.6085 7.25588 25.4616 7.59833 26.1839 8.29245C26.9057 8.98606 27.25 9.79097 27.25 10.7467C27.25 11.7124 26.9044 12.521 26.1839 13.2134ZM6.73048 14.2212V6.50585C6.73048 6.45412 6.73984 6.42504 6.78816 6.37838C6.83728 6.33093 6.8798 6.31209 6.95768 6.31209C7.01924 6.31209 7.05396 6.32538 7.10152 6.37238C7.14723 6.41756 7.15882 6.44843 7.15882 6.50585V14.2253C7.11756 14.2383 7.05379 14.25 6.95768 14.25C6.848 14.25 6.77618 14.2361 6.73048 14.2212ZM1.14043 12.5477C1.14043 12.5477 1.14055 12.5474 1.14081 12.5468L1.14043 12.5477ZM3.74674 13.8227V5.36072C3.74674 5.31959 3.75227 5.29619 3.7979 5.25212C3.84424 5.20737 3.8809 5.1921 3.94788 5.1921C4.03073 5.1921 4.06962 5.21226 4.11093 5.25216C4.15651 5.29619 4.16205 5.31962 4.16205 5.36072V13.8219C4.1192 13.835 4.05139 13.8473 3.94788 13.8473C3.85177 13.8473 3.788 13.8356 3.74674 13.8227Z" stroke="#444444" stroke-width="1.5"/>
</svg>
