<svg width="21" height="21" viewBox="0 0 21 21" fill="none" xmlns="http://www.w3.org/2000/svg">
<path d="M10.3334 20C5.1002 20 1 15.827 1 10.5C1 8.20163 1.78407 5.99637 3.20717 4.2908C3.31927 4.15653 3.51877 4.13817 3.65303 4.2509C3.7873 4.363 3.80567 4.5625 3.69357 4.69677C2.36483 6.28833 1.63333 8.3492 1.63333 10.5C1.63333 15.4723 5.45487 19.3667 10.3334 19.3667C15.3146 19.3667 19.3667 15.3893 19.3667 10.5C19.3667 5.61067 15.3146 1.63333 10.3334 1.63333C8.78747 1.63333 7.28583 2.026 5.99067 2.76763C5.83993 2.8544 5.6455 2.80247 5.55873 2.65047C5.47133 2.49847 5.5239 2.3053 5.6759 2.21853C7.0667 1.42117 8.67727 1 10.3334 1C15.6636 1 20 5.2617 20 10.5C20 15.7383 15.6636 20 10.3334 20Z" stroke="#444444" stroke-width="0.7"/>
<path d="M5.14418 3.24953C5.14418 3.42369 5.00168 3.56619 4.82751 3.56619C4.65334 3.56619 4.51084 3.42369 4.51084 3.24953C4.51084 3.07536 4.65334 2.93286 4.82751 2.93286C5.00168 2.93286 5.14418 3.07473 5.14418 3.24953ZM17.1123 9.25986C17.3422 8.84693 17.2041 8.29593 16.7912 8.06603C13.3933 6.04569 8.02078 5.86203 4.76101 6.82596C4.34808 6.96339 4.07258 7.42256 4.21001 7.88173C4.34808 8.29466 4.80661 8.57016 5.26578 8.43273C8.06701 7.56063 12.9798 7.74429 15.9184 9.48849C16.332 9.71966 16.883 9.58159 17.1123 9.25986ZM5.58751 12.7958C5.31201 12.8876 5.08211 13.1631 5.17394 13.4842C5.26578 13.7597 5.54128 13.989 5.86301 13.8978C9.07718 13.1631 11.7859 13.4386 13.9443 14.7699C14.2198 14.9535 14.5409 14.8617 14.7246 14.5862C14.8627 14.3107 14.8164 13.9434 14.4953 13.8059C12.1077 12.3366 9.07654 12.0155 5.58751 12.7958ZM15.8266 12.0611C16.0559 11.74 15.9184 11.2808 15.6429 11.1428C12.7961 9.39793 8.66361 8.89253 5.31138 9.90269C4.94404 9.99453 4.76038 10.4075 4.85221 10.7748C4.94404 11.1421 5.35698 11.3258 5.72431 11.234C8.61674 10.3156 12.3825 10.7748 14.862 12.2897C15.1838 12.5203 15.5967 12.3828 15.8266 12.0611Z" fill="#444444"/>
</svg>
