<svg width="20" height="17" viewBox="0 0 20 17" fill="none" xmlns="http://www.w3.org/2000/svg">
<path fill-rule="evenodd" clip-rule="evenodd" d="M4.30666 10.2971C4.3497 10.3112 4.39314 10.3212 4.43653 10.3274C4.48385 10.4355 4.545 10.5754 4.61633 10.739C4.79042 11.1384 5.02499 11.6784 5.26711 12.2418C5.76088 13.3908 6.25895 14.5751 6.36895 14.9142C6.50513 15.3333 6.64907 15.6182 6.80621 15.8127C6.88745 15.9133 6.98142 16.0011 7.09138 16.0676C7.14673 16.1011 7.2052 16.1286 7.26624 16.149C7.26892 16.1499 7.27161 16.1508 7.27429 16.1517C7.58891 16.2672 7.87575 16.219 8.05534 16.1602C8.15143 16.1288 8.22918 16.0907 8.28428 16.0599C8.31238 16.0442 8.33611 16.0296 8.35505 16.0172L8.35952 16.0142L11.1381 14.3291L14.3475 16.7221C14.3949 16.7574 14.4465 16.787 14.5012 16.8102C14.8868 16.9739 15.2602 17.031 15.6114 16.9843C15.962 16.9377 16.2404 16.7944 16.4476 16.6332C16.6506 16.4753 16.7881 16.2985 16.8738 16.1671C16.9176 16.1 16.9504 16.0406 16.9736 15.9951C16.9852 15.9723 16.9946 15.9526 17.0018 15.9368L17.0111 15.9159L17.0146 15.9078L17.016 15.9043L17.0167 15.9027L17.0173 15.9012C17.0342 15.8602 17.0471 15.8177 17.056 15.7744L19.9859 1.40813C19.9953 1.36218 20 1.31545 20 1.26861C20 0.847904 19.837 0.447858 19.4537 0.205104C19.1262 -0.00237332 18.7613 -0.011304 18.5306 0.0057199C18.2819 0.0240837 18.0521 0.0838106 17.8979 0.131537C17.8177 0.156374 17.7504 0.180339 17.7019 0.198621C17.6775 0.207809 17.6576 0.215692 17.6427 0.221705L17.6315 0.226282L1.19969 6.49517L1.19756 6.49592C1.18709 6.49962 1.17364 6.5045 1.15767 6.51055C1.12585 6.5226 1.08322 6.53957 1.03342 6.56152C0.936301 6.60433 0.800058 6.67123 0.660249 6.76434C0.436893 6.91309 -0.0767844 7.3205 0.00971265 7.99295C0.0787176 8.5294 0.456615 8.85887 0.686854 9.01731C0.813277 9.1043 0.933381 9.16652 1.02085 9.20701C1.06143 9.2258 1.14568 9.25909 1.18224 9.27353L1.19146 9.27718L4.30666 10.2971ZM18.2065 1.54688L18.2043 1.54785C18.1961 1.55131 18.1878 1.55463 18.1795 1.5578L1.72778 7.8343C1.71918 7.83757 1.71053 7.8407 1.70182 7.84366L1.69266 7.84704C1.68214 7.85102 1.66442 7.85801 1.64218 7.86782C1.62957 7.87337 1.61641 7.87944 1.60299 7.88595C1.62142 7.89605 1.63907 7.90482 1.65475 7.91208C1.6698 7.91905 1.68128 7.92381 1.68756 7.92632L4.77718 8.93789C4.83373 8.95641 4.88645 8.98094 4.93484 9.01051L15.1366 3.20253L15.1461 3.19704C15.1536 3.19277 15.1633 3.18728 15.175 3.18085C15.1982 3.16808 15.2301 3.15109 15.2681 3.13231C15.3389 3.09726 15.4522 3.04524 15.5798 3.00688C15.6686 2.98017 15.9306 2.90494 16.2139 2.99329C16.3887 3.04782 16.5697 3.16505 16.6874 3.36364C16.7458 3.4623 16.777 3.56141 16.7921 3.65214C16.8322 3.79506 16.8258 3.93619 16.7945 4.05804C16.7269 4.3205 16.5373 4.52523 16.3647 4.68182C16.2169 4.81607 14.3043 6.60963 12.4176 8.38015C11.4767 9.26309 10.5453 10.1373 9.84925 10.7908L9.39205 11.2201L15.1649 15.5244C15.2973 15.5705 15.3756 15.5681 15.4118 15.5633C15.455 15.5576 15.4903 15.5414 15.5263 15.5133C15.5667 15.482 15.602 15.4396 15.6283 15.3991L15.6294 15.3975L18.4711 1.46385C18.4289 1.47371 18.3863 1.48544 18.3452 1.49817C18.2987 1.51258 18.2603 1.5263 18.2348 1.5359C18.2222 1.54065 18.2131 1.54425 18.2082 1.54624L18.2065 1.54688ZM9.888 13.397L8.73628 12.5383L8.4572 14.2648L9.888 13.397ZM7.67972 10.8343L8.82504 9.75894C9.52118 9.1054 10.4526 8.2311 11.3936 7.34807L12.3497 6.451L5.93964 10.1003L5.97403 10.1792C6.14874 10.5799 6.38435 11.1224 6.62775 11.6887C6.80976 12.1123 7.00008 12.5582 7.17344 12.9711L7.45169 11.2496C7.47852 11.0837 7.56189 10.94 7.67972 10.8343Z" fill="#444444"/>
</svg>
