<svg width="17" height="19" viewBox="0 0 17 19" fill="none" xmlns="http://www.w3.org/2000/svg">
<path d="M6.16223 19C4.77808 19 3.47266 18.5588 2.3871 17.7238C2.18433 17.5679 1.98935 17.3976 1.80737 17.218C0.540204 15.9667 -0.0974642 14.3001 0.0120944 12.5252C0.0949134 11.1837 0.63565 9.89039 1.53552 8.88361C2.72729 7.55027 4.3703 6.81588 6.16261 6.81588C6.47048 6.81588 6.78133 6.83889 7.08736 6.88416L7.56273 6.95467V11.1699L6.83073 10.9283C6.61755 10.8578 6.39584 10.8222 6.17152 10.8222C5.60479 10.8222 5.07408 11.0441 4.67706 11.4468C4.28191 11.8475 4.06911 12.3775 4.07728 12.9397C4.08805 13.6644 4.4702 14.3212 5.09933 14.6975C5.38901 14.8705 5.7188 14.9718 6.05379 14.9903C6.31822 15.0048 6.5793 14.9703 6.83036 14.8875C7.68863 14.6044 8.26539 13.8088 8.26539 12.9081L8.2691 8.53664V0H12.3009L12.3057 0.551445C12.3079 0.801191 12.3335 1.05094 12.3818 1.29289C12.5712 2.24437 13.1053 3.09232 13.8856 3.68014C14.5782 4.20227 15.4049 4.47799 16.2754 4.47799C16.2959 4.47799 16.2959 4.47799 16.4819 4.49098L17 4.52734V7.94141V8.49805L16.8143 8.49768H16.444C16.4411 8.49768 16.4381 8.49768 16.4348 8.49768H16.2569C16.2561 8.49768 16.255 8.49768 16.2539 8.49768C15.1802 8.49768 14.1741 8.2932 13.177 7.87275C12.8799 7.74732 12.5905 7.60408 12.3113 7.44414L12.3239 12.9293C12.3172 14.5517 11.6755 16.0736 10.5171 17.2176C9.57712 18.1457 8.39092 18.7388 7.08661 18.9317C6.78245 18.977 6.4716 19 6.16223 19ZM6.16223 7.92916C4.69192 7.92916 3.34379 8.53145 2.36631 9.62506C1.63245 10.4463 1.19124 11.5006 1.12365 12.5934C1.03452 14.0426 1.5552 15.4037 2.59025 16.4257C2.73992 16.5734 2.89999 16.7133 3.06637 16.8413C3.95546 17.5253 5.02617 17.8867 6.16223 17.8867C6.41701 17.8867 6.67289 17.8678 6.92357 17.8307C7.99205 17.6726 8.96397 17.1868 9.73422 16.4261C10.6805 15.4917 11.2045 14.2496 11.2101 12.9285L11.1926 5.26953L12.0925 5.96311C12.5571 6.32121 13.0681 6.61883 13.6107 6.84779C14.3524 7.16062 15.1 7.3343 15.8855 7.37549V5.57754C14.9147 5.5048 13.9977 5.16006 13.2145 4.56965C12.2154 3.81707 11.5317 2.73051 11.2888 1.51072C11.2628 1.37973 11.2417 1.24725 11.2261 1.11365H9.38289V8.53701L9.37917 12.9085C9.37917 14.2901 8.49528 15.5102 7.17946 15.9444C6.79582 16.071 6.39658 16.1237 5.99251 16.1018C5.47777 16.0736 4.9712 15.9181 4.52703 15.6527C3.56402 15.0772 2.97909 14.0689 2.96275 12.956C2.95012 12.0936 3.27657 11.2801 3.88267 10.6652C4.49063 10.0485 5.30322 9.70893 6.17078 9.70893C6.26362 9.70893 6.35573 9.71301 6.44783 9.7208V7.93695C6.35276 7.93176 6.25731 7.92916 6.16223 7.92916Z" fill="#444444"/>
</svg>
