<svg width="21" height="17" viewBox="0 0 21 17" fill="none" xmlns="http://www.w3.org/2000/svg">
<path fill-rule="evenodd" clip-rule="evenodd" d="M13.4512 0.0774479C13.9478 -0.00586709 14.5038 -0.0336852 15.0271 0.0530359C15.9617 0.207915 16.825 0.633404 17.5074 1.27132C17.9535 1.2812 18.3919 1.19512 18.7798 1.07241C19.1081 0.968552 19.3854 0.84315 19.5797 0.743997C19.6763 0.694696 19.751 0.652639 19.7995 0.624167C19.8237 0.609953 19.8413 0.599195 19.8518 0.592698L19.8611 0.586898C20.151 0.397724 20.537 0.434543 20.784 0.675168C21.0311 0.91585 21.0709 1.29369 20.8792 1.5787C20.6763 1.88035 20.3946 2.41811 20.0791 3.02062C20.0295 3.11536 19.979 3.2117 19.9279 3.30897C19.7469 3.65336 19.5614 4.00144 19.3884 4.30006C19.2798 4.48757 19.1636 4.67794 19.0465 4.84244V5.10438C19.054 6.0665 18.9413 7.0236 18.7127 7.95472C18.5688 8.54057 18.379 9.11614 18.1444 9.67619C17.5364 11.1272 16.6394 12.4451 15.5057 13.5528C14.372 14.6604 13.0243 15.5357 11.5413 16.1275C10.0597 16.7187 8.47273 17.0151 6.87298 16.9994C4.5539 17.0014 2.28359 16.3469 0.335271 15.1147C0.0483039 14.9332 -0.0725178 14.5815 0.0440428 14.267C0.160603 13.9525 0.483605 13.7587 0.822604 13.7998C1.11598 13.8353 1.41135 13.8527 1.70697 13.8517C2.76912 13.8488 3.81105 13.6189 4.76226 13.1859C4.45991 13.0511 4.17125 12.8848 3.90152 12.6889C3.10868 12.1131 2.51882 11.3094 2.21401 10.3899C2.1348 10.1509 2.18895 9.8888 2.35677 9.6988C2.35977 9.6954 2.36281 9.69203 2.36587 9.68869C2.18661 9.53213 2.01888 9.36165 1.86446 9.17831C1.16969 8.3534 0.787122 7.31876 0.781476 6.24937L0.781456 6.24566L0.781466 6.19782C0.781466 5.94346 0.918944 5.70811 1.14282 5.57922C1.19957 5.54654 1.25972 5.52195 1.32159 5.50545C0.991131 4.85958 0.81928 4.14638 0.820535 3.42284C0.820144 2.60314 1.03874 1.79759 1.45459 1.08626C1.57465 0.880905 1.79034 0.746735 2.03113 0.727623C2.27193 0.708511 2.50686 0.806915 2.6591 0.990654C3.59926 2.12536 4.77261 3.05364 6.10292 3.71519C6.78677 4.05527 7.50423 4.32095 8.24245 4.50889C8.65633 4.61426 9.07673 4.69518 9.50139 4.75108C9.48268 4.05911 9.62219 3.36752 9.91494 2.72848C10.3444 1.79104 11.0794 1.01974 12.0046 0.535545C12.3964 0.330488 12.9165 0.167162 13.4512 0.0774479ZM2.43535 7.29843C2.56199 7.64753 2.75037 7.97504 2.99461 8.26503C3.4745 8.83481 4.14059 9.22474 4.88019 9.36885C5.20963 9.43305 5.45229 9.70848 5.46892 10.0371C5.48555 10.3657 5.27189 10.6633 4.95054 10.7591C4.68438 10.8384 4.4117 10.8937 4.13591 10.9244C4.31815 11.1545 4.53253 11.3606 4.77418 11.5362C5.32231 11.9343 5.98351 12.1551 6.66577 12.168C6.97532 12.1738 7.2477 12.3697 7.34618 12.6572C7.44466 12.9447 7.34798 13.2618 7.10467 13.4493C6.07991 14.2392 4.89492 14.7899 3.63927 15.0711C4.67998 15.3975 5.77143 15.5656 6.87543 15.5643L6.88393 15.5643C8.29049 15.5786 9.68587 15.3183 10.9885 14.7984C12.2912 14.2786 13.4751 13.5097 14.471 12.5367C15.4669 11.5637 16.2549 10.406 16.789 9.13134C16.9951 8.63936 17.1618 8.13376 17.2882 7.61912C17.4892 6.80038 17.5882 5.95876 17.5814 5.11275L17.5814 5.10714V4.60007C17.5814 4.42608 17.6459 4.25803 17.763 4.12717C17.8306 4.05155 17.949 3.87689 18.1141 3.59188C18.271 3.321 18.4447 2.9958 18.6253 2.65215C18.6362 2.63137 18.6471 2.61048 18.6581 2.58949C18.1897 2.68913 17.6588 2.74136 17.1022 2.68244C16.926 2.66378 16.7626 2.58314 16.6424 2.45547C16.1512 1.93373 15.4971 1.58642 14.7827 1.46804C14.4658 1.41551 14.0825 1.42753 13.6986 1.49195C13.2814 1.56195 12.9183 1.68443 12.695 1.80132C12.0559 2.13576 11.5483 2.66852 11.2516 3.31602C10.955 3.96353 10.8862 4.68917 11.0559 5.37913C11.11 5.59909 11.0551 5.83118 10.9076 6.00533C10.7601 6.17949 10.5374 6.27531 10.3067 6.26388C9.48294 6.22307 8.66788 6.09998 7.87391 5.89785C7.03401 5.68403 6.21772 5.38175 5.43967 4.99483C4.29417 4.42518 3.25096 3.6817 2.34763 2.79415C2.30642 3.00043 2.2855 3.21094 2.28565 3.42281L2.28564 3.42464C2.28462 3.95154 2.41663 4.4705 2.66991 4.93533C2.92319 5.40017 3.28988 5.79644 3.73733 6.08887C4.00889 6.26634 4.12779 6.59841 4.02889 6.90315C3.92999 7.20788 3.63716 7.41175 3.31083 7.40305C3.01528 7.39517 2.72219 7.35996 2.43535 7.29843Z" fill="#444444"/>
</svg>
