<svg width="17" height="19" viewBox="0 0 17 19" fill="none" xmlns="http://www.w3.org/2000/svg">
<path fill-rule="evenodd" clip-rule="evenodd" d="M0 1.08033C0 0.483681 0.473126 0 1.05676 0H15.9432C16.5269 0 17 0.48368 17 1.08033V11.8569C17 12.1435 16.8887 12.4183 16.6905 12.6209L14.189 15.1782C13.9908 15.3808 13.722 15.4946 13.4418 15.4946H9.27061L6.09912 18.7368C5.54918 19.299 4.60886 18.9008 4.60886 18.1058V15.4946H1.05676C0.473126 15.4946 0 15.0109 0 14.4142V1.08033ZM1.37838 1.40913V14.0854H4.93049C5.51412 14.0854 5.98724 14.5691 5.98724 15.1658V16.8584L8.39015 14.4019C8.58834 14.1993 8.85712 14.0854 9.13739 14.0854H13.3085L15.6216 11.7208V1.40913H1.37838ZM7.09308 4.41527C7.47371 4.41527 7.78227 4.73071 7.78227 5.11983V9.13308C7.78227 9.52219 7.47371 9.83764 7.09308 9.83764C6.71245 9.83764 6.40389 9.52219 6.40389 9.13308V5.11983C6.40389 4.73071 6.71245 4.41527 7.09308 4.41527ZM11.7019 4.41527C12.0826 4.41527 12.3911 4.73071 12.3911 5.11983V9.13308C12.3911 9.52219 12.0826 9.83764 11.7019 9.83764C11.3213 9.83764 11.0128 9.52219 11.0128 9.13308V5.11983C11.0128 4.73071 11.3213 4.41527 11.7019 4.41527Z" fill="#444444"/>
</svg>
