<svg width="19" height="19" viewBox="0 0 19 19" fill="none" xmlns="http://www.w3.org/2000/svg">
<path fill-rule="evenodd" clip-rule="evenodd" d="M1.81305 3.91667C0.672699 5.48397 0 7.41342 0 9.5C0 14.3688 3.66263 18.3821 8.38291 18.935C8.41872 18.9417 8.45477 18.9457 8.49075 18.947C8.82237 18.982 9.15909 19 9.5 19C14.7467 19 19 14.7467 19 9.5C19 8.16743 18.7256 6.89894 18.2303 5.74794C18.2188 5.71536 18.2049 5.68385 18.1891 5.65358C16.7126 2.32317 13.3776 0 9.5 0C6.39186 0 3.63234 1.49263 1.89916 3.80019C1.86637 3.83635 1.83761 3.87541 1.81305 3.91667ZM2.41298 5.70313C1.8059 6.8339 1.46154 8.12673 1.46154 9.5C1.46154 13.4733 4.34423 16.7732 8.13225 17.4226L10.3009 13.6629C10.0416 13.7125 9.77383 13.7385 9.50002 13.7385C7.86671 13.7385 6.44918 12.8146 5.74148 11.4609L2.41298 5.70313ZM3.32248 4.35623L5.49371 8.11298C6.06822 6.4533 7.64494 5.26153 9.50002 5.26153L16.3315 5.26153C14.9132 2.98025 12.3839 1.46154 9.5 1.46154C7.01704 1.46154 4.79701 2.58729 3.32248 4.35623ZM17.0459 6.72307H12.7022C13.3478 7.46686 13.7385 8.4378 13.7385 9.49999C13.7385 10.3346 13.4972 11.113 13.0806 11.769L9.75494 17.5345C14.0765 17.3999 17.5385 13.8542 17.5385 9.5C17.5385 8.52396 17.3645 7.58854 17.0459 6.72307ZM9.50002 6.72307C7.96637 6.72307 6.7231 7.96634 6.7231 9.49999C6.7231 11.0336 7.96637 12.2769 9.50002 12.2769C11.0337 12.2769 12.2769 11.0336 12.2769 9.49999C12.2769 7.96634 11.0337 6.72307 9.50002 6.72307Z" fill="#444444"/>
</svg>
