<svg width="22" height="15" viewBox="0 0 22 15" fill="none" xmlns="http://www.w3.org/2000/svg">
<path fill-rule="evenodd" clip-rule="evenodd" d="M9.28686 3.8835C9.04095 3.7455 8.73469 3.74188 8.48514 3.87404C8.23559 4.0062 8.08133 4.25369 8.08133 4.52192V10.4781C8.08133 10.7463 8.23559 10.9938 8.48514 11.126C8.73469 11.2581 9.04095 11.2545 9.28686 11.1165L14.5935 8.13842C14.8332 8.00387 14.9799 7.76152 14.9799 7.5C14.9799 7.23848 14.8332 6.99613 14.5935 6.86158L9.28686 3.8835ZM12.6368 7.5L9.67331 9.16312V5.83689L12.6368 7.5Z" fill="#444444"/>
<path fill-rule="evenodd" clip-rule="evenodd" d="M16.3392 0.195051C12.7851 -0.065017 9.21486 -0.0650172 5.66085 0.195051L3.28274 0.369072C1.83662 0.474894 0.653575 1.48864 0.414525 2.82683C-0.138175 5.92083 -0.138175 9.07917 0.414525 12.1732C0.653575 13.5114 1.83662 14.5251 3.28274 14.6309L5.66085 14.8049C9.21486 15.065 12.7851 15.065 16.3391 14.8049L18.7173 14.6309C20.1634 14.5251 21.3464 13.5114 21.5855 12.1732C22.1382 9.07917 22.1382 5.92083 21.5855 2.82683C21.3464 1.48864 20.1634 0.474894 18.7173 0.369072L16.3392 0.195051ZM5.78502 1.67955C9.25638 1.42553 12.7436 1.42553 16.215 1.67956L18.5931 1.85358C19.3101 1.90605 19.8967 2.4087 20.0153 3.07222C20.5389 6.00375 20.5389 8.99625 20.0153 11.9278C19.8967 12.5913 19.3101 13.094 18.5931 13.1464L16.215 13.3204C12.7436 13.5745 9.25637 13.5745 5.78502 13.3204L3.40691 13.1464C2.68987 13.094 2.10327 12.5913 1.98474 11.9278C1.46107 8.99625 1.46107 6.00375 1.98474 3.07222C2.10327 2.4087 2.68987 1.90605 3.40691 1.85358L5.78502 1.67955Z" fill="#444444"/>
</svg>
