<svg width="84" height="18" viewBox="0 0 84 18" fill="none" xmlns="http://www.w3.org/2000/svg">
<path d="M28.0035 14.577V14.2275H27.9151L27.8129 14.4673L27.7113 14.2275H27.6226V14.577H27.6854V14.3137L27.781 14.5408H27.846L27.9415 14.3131V14.577H28.0037H28.0035ZM27.4429 14.577V14.2874H27.556V14.2284H27.2671V14.2874H27.3802V14.577H27.4424H27.4429Z" fill="#F79410"/>
<path d="M17.9613 16.0755H10.3154V1.92407H17.9614L17.9613 16.0755Z" fill="#FF5F00"/>
<path d="M10.8003 8.99997C10.8003 6.12937 12.1054 3.57222 14.1376 1.92428C12.5993 0.675036 10.6966 -0.00297131 8.73763 9.78873e-06C3.91185 9.78873e-06 0 4.02937 0 8.99997C0 13.9706 3.91185 17.9999 8.73763 17.9999C10.6967 18.003 12.5994 17.3249 14.1378 16.0757C12.1056 14.428 10.8003 11.8707 10.8003 8.99997Z" fill="#EB001B"/>
<path d="M28.2764 8.99997C28.2764 13.9706 24.3646 17.9999 19.5388 17.9999C17.5795 18.0029 15.6766 17.3249 14.1379 16.0757C16.1708 14.4277 17.4758 11.8707 17.4758 8.99997C17.4758 6.12922 16.1708 3.57222 14.1379 1.92428C15.6765 0.675073 17.5794 -0.00291906 19.5386 9.44729e-06C24.3644 9.44729e-06 28.2763 4.02937 28.2763 8.99997" fill="#F79E1B"/>
<path d="M59.2752 15.8591H55.7138L57.9396 1.71657H61.5014L59.2752 15.8591ZM52.7178 1.71657L49.3225 11.4439L48.9207 9.34922L48.9211 9.34997L47.7228 2.98994C47.7228 2.98994 47.5779 1.71657 46.0334 1.71657H40.4204L40.3545 1.95604C40.3545 1.95604 42.071 2.32526 44.0798 3.57253L47.1739 15.8594H50.8846L56.5506 1.71657H52.7178ZM80.7298 15.8591H83.9999L81.1487 1.7162H78.2859C76.9639 1.7162 76.6419 2.77015 76.6419 2.77015L71.3303 15.8591H75.0428L75.7853 13.7583H80.3126L80.7298 15.8591ZM76.8109 10.8564L78.6822 5.56391L79.7349 10.8564H76.8109ZM71.6088 5.11752L72.117 2.0805C72.117 2.0805 70.5488 1.46387 68.9139 1.46387C67.1466 1.46387 62.9496 2.26246 62.9496 6.14575C62.9496 9.7994 67.8755 9.84479 67.8755 11.7639C67.8755 13.6831 63.4571 13.3392 61.999 12.129L61.4695 15.3045C61.4695 15.3045 63.0598 16.1031 65.4894 16.1031C67.9197 16.1031 71.5861 14.8021 71.5861 11.2612C71.5861 7.58405 66.616 7.24169 66.616 5.64298C66.6164 4.04389 70.0848 4.24931 71.6088 5.11752Z" fill="#2566AF"/>
<path d="M48.9211 9.34958L47.7228 2.98955C47.7228 2.98955 47.5779 1.71619 46.0334 1.71619H40.4204L40.3545 1.95565C40.3545 1.95565 43.0523 2.5337 45.64 4.69948C48.1143 6.76956 48.9211 9.34958 48.9211 9.34958Z" fill="#E6A540"/>
</svg>
