<svg width="28" height="27" viewBox="0 0 28 27" fill="none" xmlns="http://www.w3.org/2000/svg">
<path fill-rule="evenodd" clip-rule="evenodd" d="M25.5023 3.6H5.82088L4.13926 0.553819C3.9505 0.211901 3.59342 0 3.206 0H1.06867C0.478459 0 0 0.483532 0 1.08C0 1.67647 0.478459 2.16 1.06867 2.16H2.57848L4.23804 5.16622L8.0654 13.7245L8.06933 13.7332L8.40643 14.487L4.56373 18.6293C4.28743 18.9272 4.20094 19.357 4.34019 19.7403C4.47945 20.1235 4.82065 20.3947 5.22202 20.441L8.72459 20.8456C13.1057 21.3516 17.5295 21.3516 21.9106 20.8456L25.4132 20.441C25.9996 20.3733 26.4206 19.838 26.3536 19.2454C26.2866 18.6528 25.7569 18.2273 25.1705 18.295L21.6679 18.6995C17.4481 19.1869 13.1871 19.1869 8.96728 18.6995L7.57727 18.539L10.3977 15.4987C10.4249 15.4693 10.4503 15.4387 10.4737 15.4072L11.5464 15.5482C13.0495 15.7459 14.569 15.7847 16.0801 15.6639C19.6045 15.3822 22.8709 13.6873 25.1514 10.9571L25.9751 9.97092C26.0028 9.93781 26.0284 9.90303 26.052 9.8668L27.5871 7.50253C28.6752 5.82671 27.4857 3.6 25.5023 3.6ZM10.5531 13.2394C10.3174 13.2084 10.1142 13.0571 10.015 12.8391L10.0131 12.8349L6.84908 5.76H25.5023C25.7856 5.76 25.9556 6.0781 25.8001 6.3175L24.3003 8.62737L23.5182 9.56379C21.6059 11.8532 18.8669 13.2744 15.9115 13.5106C14.5485 13.6195 13.178 13.5846 11.8221 13.4063L10.5531 13.2394Z" fill="#4464B4"/>
<path d="M7.48068 22.68C6.30026 22.68 5.34334 23.6471 5.34334 24.84C5.34334 26.0329 6.30026 27 7.48068 27C8.66109 27 9.61801 26.0329 9.61801 24.84C9.61801 23.6471 8.66109 22.68 7.48068 22.68Z" fill="#4464B4"/>
<path d="M21.0171 24.84C21.0171 23.6471 21.9741 22.68 23.1545 22.68C24.3349 22.68 25.2918 23.6471 25.2918 24.84C25.2918 26.0329 24.3349 27 23.1545 27C21.9741 27 21.0171 26.0329 21.0171 24.84Z" fill="#4464B4"/>
</svg>
