<svg width="8" height="15" viewBox="0 0 8 15" fill="none" xmlns="http://www.w3.org/2000/svg">
<path d="M5.7734 0C4.8066 0 3.8794 0.4005 3.19577 1.1134C2.51214 1.82629 2.12808 2.79318 2.12808 3.80137V5.91781H0.17734C0.0793976 5.91781 0 6.00061 0 6.10274V8.89726C0 8.9994 0.0793977 9.08219 0.17734 9.08219H2.12808V14.8151C2.12808 14.9172 2.20748 15 2.30542 15H4.98522C5.08316 15 5.16256 14.9172 5.16256 14.8151V9.08219H7.13058C7.21196 9.08219 7.28289 9.02444 7.30262 8.94211L7.97257 6.14759C8.00056 6.03087 7.9159 5.91781 7.80053 5.91781H5.16256V3.80137C5.16256 3.63243 5.22692 3.47041 5.34147 3.35095C5.45603 3.23149 5.61139 3.16438 5.7734 3.16438H7.82266C7.9206 3.16438 8 3.08159 8 2.97945V0.184932C8 0.0827968 7.9206 0 7.82266 0H5.7734Z" fill="#4464B4"/>
</svg>
