<svg width="231" height="45" viewBox="0 0 231 45" fill="none" xmlns="http://www.w3.org/2000/svg">
<path fill-rule="evenodd" clip-rule="evenodd" d="M13.2932 0.0614792C11.8472 0.289378 9.95362 1.0179 9.26968 1.61069C8.66066 2.13782 8.06972 2.76028 8.01159 2.93578C7.97801 3.03679 7.90955 3.11949 7.85918 3.11949C7.40838 3.11949 6.22586 6.58469 6.20261 7.97354C6.19486 8.41672 6.15675 8.76014 6.11736 8.73678C6.07796 8.71406 6.04632 8.8965 6.04696 9.14271C6.04761 9.38891 6.04309 10.2418 6.03792 11.0372L6.02759 12.4842H3.01347H0V13.7992V15.1142H3.01347H6.02694L6.05407 28.1347L6.08119 41.1552L7.61505 41.1849L9.14891 41.2139V28.1644V15.1142H13.9927H18.8364V13.7992V12.4842H13.9811H9.12566L9.17733 10.1427C9.23545 7.50701 9.33104 6.98746 10.0169 5.58029C11.3112 2.92316 14.8161 2.0002 17.9271 3.49637C18.3979 3.72301 18.8429 3.90167 18.9165 3.89409C18.9895 3.88652 19.0276 3.91493 19.0005 3.95722C18.9223 4.08096 19.4849 4.33663 19.5701 4.21605C20.3768 3.08035 20.9884 2.13845 20.9851 2.03808C20.9742 1.73884 18.6027 0.578513 17.2664 0.218673C16.5431 0.024233 14.1348 -0.0710934 13.2932 0.0614792ZM58.5554 20.638V41.2082H60.1163H61.6773V20.638V0.0684245H60.1163H58.5554V20.638ZM69.696 20.638V41.2082H71.2299H72.7637V20.638V0.0684245H71.2299H69.696V20.638ZM92.8441 11.7512C90.9466 11.9627 89.2642 12.4368 87.6477 13.2158C87.0419 13.5075 86.5207 13.7468 86.4891 13.7468C86.4361 13.7468 85.9427 14.075 85.1961 14.6085C84.6484 14.9999 82.2362 17.4216 82.2362 17.5806C82.2362 17.6109 82.0599 17.9051 81.8436 18.2353C80.7598 19.8918 79.7911 22.4568 79.5851 24.2156C79.3887 25.8885 79.4501 29.5993 79.671 29.4655C79.7259 29.432 79.7407 29.5179 79.7039 29.6599C79.5076 30.4238 80.8457 33.9224 81.8629 35.3069C82.0683 35.5859 82.2362 35.8498 82.2362 35.8927C82.2362 35.9704 82.8556 36.7273 83.4743 37.4053C83.6519 37.6004 83.991 37.8908 84.228 38.0505C84.4643 38.2102 84.8519 38.512 85.0889 38.7203C85.3253 38.9286 85.5797 39.0997 85.654 39.101C85.7276 39.1029 85.7883 39.1426 85.7883 39.19C85.7883 39.3888 88.6862 40.813 89.3294 40.9298C89.4244 40.9469 89.6956 41.0138 89.9326 41.0788C92.1543 41.6836 96.5596 41.8099 97.9152 41.3067C98.0753 41.2474 98.1658 41.2632 98.2026 41.3579C98.2536 41.4879 101.548 44.1539 101.657 44.1539C101.685 44.1539 101.833 44.2681 101.988 44.4077C102.704 45.0566 103.693 45.1968 104.09 44.7063C104.364 44.3679 104.344 43.1097 104.036 41.3288C103.947 40.8143 103.912 40.5479 103.815 39.63L103.743 38.9457L104.455 38.3813C105.193 37.7967 106.778 36.1926 106.778 36.0303C106.778 35.9798 106.873 35.8384 106.989 35.7166C108.975 33.6333 110.208 27.3531 109.377 23.5552C108.969 21.691 107.689 18.4613 107.289 18.2883C107.245 18.2694 107.209 18.1861 107.209 18.104C107.209 18.0225 107.16 17.955 107.101 17.955C107.041 17.955 106.993 17.9026 106.993 17.8388C106.993 17.5649 105.477 15.962 104.033 14.7095C101.708 12.6925 96.5764 11.3358 92.8441 11.7512ZM185.139 11.9659C183.398 12.1818 181.666 12.6988 180.08 13.4753C179.695 13.6641 179.199 13.8964 178.977 13.9911C178.755 14.0864 178.574 14.212 178.574 14.2707C178.574 14.3295 178.533 14.3661 178.484 14.3515C178.286 14.2935 175.779 16.4891 175.235 17.1987C175.088 17.39 174.919 17.6053 174.86 17.676C174.801 17.7467 174.679 17.9298 174.591 18.0825C174.502 18.2353 174.183 18.7782 173.88 19.2889C173.101 20.6065 172.486 22.2497 172.269 23.5874C172.232 23.8172 172.184 24.0319 172.164 24.0647C172.144 24.0975 172.076 24.713 172.013 25.4327C171.907 26.6568 171.935 27.3582 172.169 29.3695C172.353 30.9541 173.391 33.6636 174.319 34.9824C174.527 35.2785 174.699 35.5455 174.699 35.5752C174.699 35.8504 176.655 37.887 177.423 38.4103C177.585 38.5208 177.848 38.7291 178.007 38.8731C180.841 41.4406 188.203 42.5359 192.054 40.9633C192.247 40.8844 192.442 40.813 192.486 40.8042C193.832 40.5492 197.075 38.0776 198.445 36.2633L199.079 35.4256L199.107 38.3169L199.136 41.2082H200.695H202.254V26.6884V12.1685H200.695H199.136L199.107 15.1931L199.079 18.2183L198.834 17.7713C198.7 17.5251 198.542 17.3237 198.485 17.3237C198.427 17.3237 198.379 17.2631 198.379 17.1886C198.379 17.0043 196.075 14.7215 195.473 14.3093C192.83 12.4999 188.59 11.5385 185.139 11.9659ZM111.622 12.2954C111.622 12.3655 111.811 12.9217 112.043 13.5315C112.942 15.9039 113.657 17.8287 113.898 18.5339C114.038 18.9392 114.188 19.2864 114.233 19.306C114.277 19.3249 114.29 19.3792 114.26 19.4266C114.208 19.508 114.651 20.7775 115.601 23.2686C116.555 25.7717 117.333 27.9011 117.373 28.117C117.396 28.242 117.463 28.4333 117.523 28.5419C117.582 28.6511 117.729 29.052 117.849 29.4326C117.969 29.8139 118.386 30.9736 118.776 32.0102C119.855 34.8751 120.394 36.3409 120.686 37.2096C120.833 37.6439 121.214 38.7209 121.535 39.6035L122.117 41.2076H123.853L125.59 41.2082L125.826 40.6407C125.955 40.3282 126.071 40.0088 126.083 39.9305C126.096 39.8516 126.143 39.7278 126.19 39.6552C126.236 39.582 126.459 38.9905 126.683 38.3396C126.908 37.6894 127.239 36.7784 127.42 36.3157C127.6 35.8523 128.098 34.5739 128.526 33.4748C128.954 32.3751 129.305 31.4162 129.307 31.3442C129.309 31.2716 129.341 31.2123 129.378 31.2123C129.415 31.2123 129.534 30.9402 129.642 30.6075C129.975 29.5816 130.113 29.1871 130.396 28.4522C130.546 28.0627 130.69 27.6366 130.715 27.5053C130.74 27.374 130.952 26.7458 131.186 26.1095C131.419 25.4731 131.614 24.9157 131.619 24.8709C131.623 24.826 131.756 24.41 131.914 23.9467C132.071 23.4827 132.213 23.0458 132.228 22.9757C132.243 22.9056 132.307 22.7264 132.369 22.5786C132.432 22.4303 132.542 22.0988 132.615 21.8419C132.687 21.585 132.813 21.2258 132.894 21.0433C132.976 20.8609 133.042 20.626 133.042 20.5212C133.042 20.4164 133.245 19.7302 133.493 18.996L133.944 17.6602L134.841 20.3596C135.925 23.6152 136.246 24.6398 136.454 25.5047C136.541 25.8664 136.656 26.1619 136.711 26.1619C136.765 26.1619 136.809 26.2572 136.809 26.374C136.809 26.7149 137.159 27.8456 137.264 27.8456C137.317 27.8456 137.331 27.8923 137.294 27.9491C137.259 28.0065 137.396 28.468 137.601 28.9749C138.133 30.2944 138.803 32.0317 139.293 33.3593C139.526 33.99 139.777 34.579 139.851 34.668C139.93 34.764 139.935 34.8012 139.864 34.7595C139.751 34.6932 139.969 35.293 141.608 39.5492L142.245 41.2044L143.967 41.2038L145.69 41.2032L146.197 39.7588C146.9 37.7544 148.53 33.3359 148.72 32.9212C148.806 32.7324 148.846 32.531 148.81 32.4736C148.774 32.4168 148.796 32.3701 148.859 32.3701C148.921 32.3701 148.972 32.2949 148.972 32.2034C148.972 32.0424 150.056 28.9579 150.263 28.5292C150.491 28.057 151.757 24.5432 151.779 24.321C151.785 24.2629 151.825 24.1682 151.868 24.1102C151.912 24.0527 152.012 23.792 152.091 23.5319C152.262 22.9688 152.98 20.9802 153.723 19.0074C154.018 18.2258 154.452 17.0762 154.687 16.4513C154.922 15.8269 155.09 15.2758 155.059 15.2272C155.028 15.1779 155.075 15.0794 155.163 15.0081C155.251 14.9368 155.324 14.784 155.324 14.6691C155.324 14.5536 155.493 14.017 155.7 13.4766C156.243 12.058 156.347 12.1685 154.47 12.1685C152.654 12.1685 152.594 12.1906 152.468 12.9248C152.425 13.1691 152.28 13.6552 152.146 14.005C152.011 14.3547 151.895 14.676 151.887 14.719C151.879 14.7613 151.85 14.856 151.822 14.9292C151.795 15.0018 151.631 15.4639 151.459 15.9563C151.288 16.4481 150.976 17.3123 150.767 17.8761C150.557 18.4405 150.413 18.9019 150.446 18.9019C150.479 18.9019 150.458 18.9613 150.399 19.0339C150.303 19.1532 149.902 20.2245 149.892 20.3924C149.889 20.4316 149.855 20.4953 149.814 20.5345C149.774 20.5743 149.767 20.6727 149.799 20.7535C149.831 20.835 149.814 20.9013 149.761 20.9013C149.652 20.9013 149.342 21.8324 149.385 22.0326C149.4 22.1045 149.362 22.1639 149.3 22.1639C149.238 22.1639 149.188 22.2706 149.188 22.4006C149.188 22.5306 149.085 22.8974 148.959 23.2162C148.834 23.5344 148.297 25.0255 147.767 26.5306C147.237 28.0349 146.635 29.7394 146.43 30.3183C146.224 30.8966 146.034 31.5241 146.008 31.7129C145.982 31.901 145.911 32.1377 145.851 32.2388C145.792 32.3398 145.385 33.4401 144.948 34.6844C143.867 37.7632 143.926 37.6483 143.757 36.9994C143.703 36.7929 143.334 35.769 143.283 35.6844C143.248 35.6263 143.21 35.5316 143.198 35.4735C143.186 35.4161 143.031 34.954 142.852 34.4477C142.674 33.9414 142.547 33.5272 142.57 33.5272C142.593 33.5272 142.537 33.3259 142.445 33.0803C142.353 32.8341 141.996 31.8518 141.652 30.8966C141.308 29.9421 140.75 28.403 140.412 27.4775C140.075 26.5514 139.592 25.1543 139.34 24.3734C139.089 23.5919 138.824 22.8109 138.753 22.6373C138.682 22.4637 138.629 22.3217 138.634 22.3217C138.652 22.3217 137.902 20.2119 137.568 19.323C137.225 18.4076 137.184 18.2959 137.127 18.1128C137.109 18.0554 136.928 17.5579 136.725 17.008C136.523 16.4582 136.317 15.8193 136.268 15.5876C136.219 15.3566 136.12 15.0251 136.046 14.8515C135.972 14.6779 135.905 14.5119 135.894 14.4829C135.884 14.4538 135.844 14.3478 135.804 14.2461C135.623 13.7796 135.591 13.6811 135.554 13.4968C135.533 13.3882 135.447 13.1514 135.363 12.9703C135.28 12.7897 135.181 12.5353 135.142 12.4053C135.06 12.125 133.065 12.0328 132.86 12.2998C132.757 12.4337 132.201 13.9109 131.363 16.272C131.107 16.9954 130.799 17.8426 130.681 18.1551C130.563 18.467 130.489 18.7593 130.516 18.8035C130.545 18.8477 130.529 18.9 130.481 18.9196C130.434 18.9392 130.1 19.8306 129.739 20.9013C129.077 22.8697 127.942 26.0381 127.761 26.4251C127.547 26.8803 127.341 27.5564 127.392 27.6372C127.422 27.6839 127.409 27.7382 127.365 27.7578C127.32 27.7774 126.913 28.8582 126.461 30.1605C126.009 31.4623 125.416 33.1434 125.142 33.8953C124.868 34.6478 124.462 35.7734 124.238 36.3971L123.829 37.5309L123.645 37.0284C123.544 36.7519 123.461 36.4299 123.462 36.3125C123.462 36.1951 123.387 35.9937 123.295 35.8656C123.202 35.7368 123.152 35.6313 123.183 35.6313C123.213 35.6313 122.946 34.8151 122.587 33.8164C122.23 32.8183 121.754 31.4806 121.531 30.8442C121.308 30.2079 120.929 29.1422 120.689 28.4768C120.448 27.8115 120.168 26.9826 120.066 26.6353C119.964 26.2881 119.833 25.9453 119.774 25.8727C119.716 25.8001 119.695 25.7414 119.729 25.7414C119.762 25.7414 119.619 25.2793 119.412 24.7156C119.205 24.1512 118.971 23.5003 118.894 23.2686C118.816 23.037 118.69 22.7055 118.615 22.5319C118.539 22.3583 118.466 22.1639 118.452 22.1001C118.411 21.9132 117.864 20.3432 117.76 20.1121C117.614 19.7908 117.12 18.2561 117.055 17.9247C117.024 17.7631 116.963 17.652 116.92 17.6772C116.877 17.7031 116.837 17.5769 116.83 17.3969C116.823 17.2176 116.762 17.0522 116.694 17.0301C116.627 17.008 116.598 16.9493 116.629 16.8995C116.661 16.8496 116.349 15.8951 115.938 14.7783C115.526 13.6609 115.156 12.6167 115.116 12.4577L115.043 12.1685H113.333C112.067 12.1685 111.622 12.2013 111.622 12.2954ZM208.497 13.5359V14.9039H217.381H226.264L226.065 15.1931C225.955 15.3522 225.702 15.7196 225.501 16.0087C225.302 16.2978 224.954 16.7511 224.729 17.015C224.504 17.2789 224.32 17.5472 224.32 17.6116C224.32 17.6753 224.276 17.7429 224.222 17.7625C224.094 17.8079 223.136 19.0844 223.136 19.2094C223.136 19.2624 223.096 19.3211 223.047 19.3407C222.97 19.371 222.656 19.7826 221.298 21.638C221.154 21.8337 220.686 22.4372 220.257 22.9795C219.828 23.5218 219.476 24.0022 219.476 24.047C219.476 24.1316 217.797 26.3999 217.507 26.7054C217.416 26.802 217.37 26.9087 217.404 26.9422C217.439 26.9763 217.419 27.004 217.36 27.004C217.246 27.004 216.734 27.6511 216.194 28.4775C216.016 28.7489 215.216 29.8304 214.418 30.8808C213.618 31.9319 212.552 33.3618 212.049 34.0594C211.546 34.757 211.049 35.4035 210.946 35.4956C210.842 35.5884 210.758 35.704 210.758 35.7519C210.758 35.8365 210.536 36.1276 210.238 36.4325C210.16 36.5126 210.126 36.5783 210.162 36.5783C210.198 36.5783 210.175 36.6376 210.111 36.7102C210.046 36.7822 209.757 37.173 209.467 37.5783C209.177 37.9829 208.868 38.3863 208.781 38.4741C208.034 39.2178 207.528 40.094 207.528 40.6439V41.2082H219.265H231L230.97 39.8137L230.94 38.4198L221.71 38.3927C216.633 38.3781 212.48 38.344 212.48 38.3169C212.48 38.2475 213.143 37.3093 213.368 37.0619C213.471 36.9482 213.556 36.8195 213.556 36.7765C213.556 36.7336 213.618 36.6364 213.693 36.56C213.889 36.3611 215.636 34.0613 215.877 33.6851C216.129 33.2918 216.841 32.3322 217.243 31.8436C217.41 31.6409 217.582 31.4282 217.625 31.3701C218.732 29.8947 219.153 29.3165 219.153 29.2748C219.153 29.2464 219.48 28.7969 219.88 28.2761C220.28 27.7546 220.946 26.8734 221.36 26.3178C221.774 25.7616 222.177 25.2389 222.256 25.1556C222.334 25.0729 222.374 25.0047 222.345 25.0047C222.303 25.0047 224.204 22.4606 224.783 21.7409C225.202 21.2207 225.504 20.8009 225.504 20.7384C225.504 20.6267 226.287 19.5964 226.444 19.5004C226.522 19.4537 226.557 19.371 226.522 19.3167C226.488 19.2624 226.505 19.2176 226.559 19.2176C226.614 19.2176 226.799 19.0168 226.969 18.7706C227.14 18.5244 227.308 18.2997 227.343 18.2706C227.378 18.2416 227.959 17.4607 228.634 16.5346C229.309 15.6091 230.117 14.5201 230.428 14.1148C230.969 13.4122 230.994 13.3516 230.968 12.7998L230.94 12.2209L219.719 12.1944L208.497 12.1673V13.5359ZM26.4166 12.6332C25.5538 12.8257 24.9293 13.0378 24.2699 13.3623C23.9728 13.5088 23.6098 13.6729 23.4626 13.7278C21.5354 14.4462 18.6969 18.7852 18.9688 20.597C18.994 20.7643 18.974 20.9013 18.9249 20.9013C18.7738 20.9013 18.9275 23.1032 19.1497 24.119C19.501 25.7231 20.4672 27.8089 21.3152 28.7925C21.4902 28.9951 21.682 29.218 21.7421 29.2881C21.8015 29.3575 21.8506 29.4617 21.8506 29.5191C21.8506 29.5766 22.1657 29.9446 22.55 30.3379C22.9349 30.7312 23.2501 31.0828 23.2501 31.1201C23.2501 31.1567 23.5523 31.449 23.9224 31.7691C24.2925 32.0898 24.8621 32.5986 25.1876 32.9004C25.5131 33.2021 26.2151 33.7974 26.7479 34.2229C28.0002 35.2229 27.9925 35.2166 29.7621 36.6389C30.5907 37.3056 31.376 37.9312 31.5065 38.0297C31.6376 38.1288 31.9521 38.3908 32.2065 38.6123C35.1018 41.1375 36.5582 41.7789 38.4944 41.3818C39.7951 41.1154 39.9366 41.0245 43.5694 38.118C43.849 37.8939 44.272 37.5562 44.5084 37.3668C44.7454 37.1774 45.2537 36.7708 45.6386 36.4628C46.0236 36.1553 46.5325 35.7248 46.7689 35.5057C47.0059 35.2867 47.2319 35.1074 47.2713 35.1067C47.7021 35.0998 52.4755 30.67 53.3209 29.4926C53.5656 29.1517 53.9267 28.6536 54.123 28.3853C55.8254 26.0621 56.7367 22.0458 56.0837 19.7441C56.0101 19.484 55.9313 19.1766 55.9094 19.0604C55.868 18.8407 55.6607 18.3148 55.3217 17.5686C54.9858 16.8294 53.275 14.7347 53.1265 14.8799C53.0929 14.9128 53.0658 14.8812 53.0658 14.8111C53.0658 14.6533 52.5233 14.1754 52.3392 14.171C52.2656 14.1691 52.2049 14.1186 52.2049 14.0586C52.2049 13.9747 51.4815 13.5889 51.1282 13.4848C51.0985 13.4759 50.784 13.3389 50.4288 13.1792C48.6734 12.3926 45.6877 12.2563 43.8406 12.8794C41.9716 13.5094 41.1662 14.0586 39.7803 15.6476C38.2529 17.3982 37.2021 17.5308 35.8658 16.1413C35.5726 15.837 34.983 15.2227 34.5542 14.777C32.8149 12.9677 29.1937 12.0139 26.4166 12.6332ZM97.0743 14.6419C98.4293 14.8964 100.918 15.8572 101.499 16.3509C101.59 16.4285 101.956 16.6981 102.311 16.95C103.041 17.4683 104.277 18.7675 104.628 19.3855C105.058 20.1418 105.313 20.5326 105.427 20.6102C105.489 20.6525 105.506 20.6885 105.466 20.6892C105.424 20.6904 105.514 20.9631 105.666 21.2958C106.782 23.7503 107.145 27.1562 106.552 29.61C106.268 30.7861 105.982 31.6264 105.638 32.2912C105.437 32.6813 105.307 33.002 105.352 33.0026C105.396 33.0039 105.38 33.0392 105.316 33.0815C105.252 33.1245 104.994 33.4988 104.743 33.9142C104.208 34.7993 103.022 36.0228 102.145 36.5928C101.244 37.178 100.912 37.8314 100.912 39.0132L100.913 39.9223L100.249 39.4065C99.1209 38.529 98.5739 38.3958 97.144 38.6527C95.749 38.9034 93.1186 38.8983 91.9238 38.6426C91.4207 38.5347 90.8807 38.4305 90.7244 38.4103C89.7777 38.2891 88.0242 37.4135 86.6492 36.375C86.223 36.0531 84.9274 34.8296 84.9274 34.7488C84.9274 34.7084 84.7382 34.4256 84.507 34.12C81.8642 30.6226 81.5071 24.809 83.6842 20.7264C84.4547 19.2814 84.744 18.8925 85.9498 17.6842C86.6273 17.0049 87.0412 16.7139 88.6946 15.7518C88.9607 15.5971 89.7118 15.2991 90.3628 15.0908C91.3942 14.76 91.9341 14.6476 93.4847 14.4393C94.1009 14.3566 96.1805 14.474 97.0743 14.6419ZM190.491 15.171C191.038 15.3162 191.699 15.5251 191.962 15.635C192.224 15.7448 192.467 15.8073 192.503 15.7726C192.538 15.7385 192.566 15.7657 192.566 15.8332C192.566 15.9008 192.661 15.9563 192.776 15.9563C192.891 15.9563 193.015 16.0049 193.053 16.0649C193.091 16.1242 193.327 16.2675 193.578 16.3831C195.906 17.4525 198.318 20.7782 199.03 23.8999C199.096 24.1891 199.176 24.5205 199.206 24.6367C199.557 25.9548 199.271 29.057 198.622 30.9496C198.463 31.4124 198.332 31.8246 198.33 31.865C198.327 31.9054 198.265 31.9976 198.191 32.0702C198.117 32.1422 198.056 32.24 198.056 32.2874C198.056 32.3347 197.856 32.6927 197.612 33.0822C197.368 33.4717 197.065 33.9628 196.939 34.1737C195.84 36.0164 192.595 38.0328 190.099 38.4236C189.532 38.5126 188.923 38.6104 188.746 38.6414C188.568 38.6729 187.793 38.69 187.023 38.6799C184.918 38.6521 184.827 38.6464 184.884 38.5562C184.913 38.5101 184.801 38.469 184.635 38.4646C184.01 38.4476 182.961 38.1414 181.91 37.6685C175.371 34.7273 173.052 26.1587 177.103 19.9026C177.52 19.258 177.543 19.2309 178.381 18.3388C181.205 15.332 186.191 14.0277 190.491 15.171ZM29.7601 15.2739C31.4147 15.616 32.5876 16.4266 33.8244 18.0813C36.1022 21.1304 38.9575 21.0042 41.6112 17.7378C46.1553 12.1445 54.8031 16.2644 53.3409 23.3261C53.0335 24.8109 52.0925 26.7199 51.1851 27.7016C51.1244 27.7673 50.9074 28.0274 50.7026 28.2805C50.0626 29.0722 47.3527 31.5942 46.2225 32.4502C45.5753 32.9408 44.2462 34.0209 43.57 34.6055C43.1851 34.9382 42.8273 35.2109 42.7744 35.2109C42.722 35.2115 42.4366 35.4199 42.1408 35.6736C41.8444 35.9281 41.4814 36.2349 41.3335 36.3554C41.1856 36.476 40.8943 36.7178 40.6877 36.8927C38.3245 38.8882 37.2001 38.9659 35.0159 37.2866C32.76 35.5524 31.5827 34.6162 30.2464 33.4931C29.0323 32.4736 28.6357 32.1592 28.5589 32.1573C28.4 32.1535 24.7517 28.7249 24.3261 28.1789C24.1782 27.9889 23.9237 27.6764 23.7609 27.4838C23.5982 27.2913 23.4652 27.112 23.4652 27.0855C23.4652 27.059 23.2223 26.6423 22.9252 26.1593C20.0319 21.453 22.1496 16.2499 27.3938 15.1823C27.884 15.0832 29.0568 15.128 29.7601 15.2739ZM160.8 37.3984C158.03 38.8131 160.393 42.8686 163.21 41.5352C164.18 41.0763 165.048 39.2935 164.471 38.945C164.41 38.9084 164.388 38.8358 164.421 38.7841C164.515 38.6357 164.159 38.0316 163.767 37.6761C163.054 37.0284 161.762 36.9072 160.8 37.3984Z" fill="#4464B4"/>
</svg>
