<svg width="256" height="56" viewBox="0 0 256 56" fill="none" xmlns="http://www.w3.org/2000/svg">
<g id="Group 325">
<g id="Group">
<path id="Vector" d="M122.218 23.2742L121.932 25.0828H125.015L124.639 27.4623H121.556L120.883 31.7073H118.072L119.786 20.894H125.996L125.616 23.2742H122.218Z" fill="#1E5CB2"/>
<path id="Vector_2" d="M128.717 31.7073H125.906L127.619 20.894H130.43L128.717 31.7073Z" fill="#1E5CB2"/>
<path id="Vector_3" d="M134.957 23.2742L134.67 25.0828H137.84L137.464 27.4623H134.294L133.998 29.3258H137.34L136.964 31.7073H130.81L132.524 20.894H138.675L138.299 23.2742H134.957Z" fill="#1E5CB2"/>
<path id="Vector_4" d="M142.725 23.2742H143.385C145.191 23.2742 146.296 24.3648 145.988 26.3008C145.656 28.4071 144.076 29.3258 142.398 29.3258H141.767L142.725 23.2742ZM138.579 31.7073H142.567C145.562 31.7073 148.432 29.3418 148.914 26.3008C149.396 23.2611 147.289 20.894 144.277 20.894H140.291L138.579 31.7073Z" fill="#1E5CB2"/>
<path id="Vector_5" d="M106.663 39.4858C107.426 39.4858 107.782 40.0925 107.679 40.8115C107.574 41.554 107.049 42.1259 106.289 42.1259C105.526 42.1259 105.165 41.554 105.271 40.8115C105.373 40.0925 105.903 39.4858 106.663 39.4858ZM103.042 43.7392H104.915L105.008 43.0877H105.028C105.285 43.6709 105.887 43.9338 106.503 43.9338C108.078 43.9338 109.375 42.4934 109.617 40.7998C109.856 39.1183 108.981 37.6785 107.416 37.6785C106.809 37.6785 106.144 37.9294 105.67 38.4457L106.27 34.2482H104.395L103.042 43.7392Z" fill="#1E5CB2"/>
<path id="Vector_6" d="M109.788 37.8744H111.948L112.929 40.881L114.737 37.8744H116.867L111.386 46.666H109.284L111.618 42.9397L109.788 37.8744Z" fill="#1E5CB2"/>
<path id="Vector_7" d="M126.733 43.7398L129.621 34.2164H132.197L129.311 43.7398H126.733Z" fill="#1E5CB2"/>
<path id="Vector_8" d="M125.614 34.2164L123.296 38.256C122.707 39.3152 122.361 39.847 122.197 40.5165H122.16C122.201 39.668 122.085 38.6276 122.072 38.0397L121.819 34.2164H117.479L117.436 34.4732C118.55 34.4732 119.208 35.0351 119.389 36.1805L120.234 43.7398H122.907L128.306 34.2164H125.614Z" fill="#1E5CB2"/>
<path id="Vector_9" d="M145.644 43.7393L145.571 42.3229L142.354 42.3193L141.695 43.7393H138.897L143.97 34.2363H147.405L148.262 43.7393H145.644ZM145.348 38.1201C145.317 37.4185 145.296 36.4633 145.342 35.8861H145.306C145.148 36.3596 144.475 37.7776 144.175 38.4756L143.219 40.5631H145.478L145.348 38.1201Z" fill="#1E5CB2"/>
<path id="Vector_10" d="M134.89 44.0127C133.07 44.0127 131.863 43.4342 131.001 42.9188L132.227 41.0423C133.001 41.4744 133.611 41.9764 135.009 41.9764C135.46 41.9764 135.892 41.8576 136.137 41.4332C136.498 40.8129 136.055 40.4798 135.049 39.9116L134.55 39.5858C133.057 38.5661 132.412 37.6003 133.117 35.9097C133.565 34.8255 134.751 34.0074 136.707 34.0074C138.056 34.0074 139.321 34.59 140.058 35.1612L138.644 36.8157C137.926 36.2324 137.331 35.9391 136.648 35.9391C136.104 35.9391 135.69 36.1492 135.55 36.4331C135.282 36.9649 135.636 37.3277 136.42 37.8127L137.012 38.1899C138.822 39.332 139.253 40.5296 138.799 41.6523C138.02 43.581 136.489 44.0127 134.89 44.0127Z" fill="#1E5CB2"/>
<path id="Vector_11" d="M99.9286 23.2742L99.6429 25.0828H102.812L102.436 27.4623H99.2664L98.9704 29.3258H102.314L101.935 31.7073H95.7822L97.4955 20.894H103.648L103.272 23.2742H99.9286Z" fill="#1E5CB2"/>
<path id="Vector_12" d="M107.734 23.0394H108.007C108.925 23.0394 109.931 23.2113 109.744 24.3872C109.559 25.5637 108.498 25.7353 107.581 25.7353H107.307L107.734 23.0394ZM109.846 27.27C111.425 26.9975 112.461 25.7065 112.697 24.216C113.062 21.907 111.603 20.888 109.466 20.888H105.263L103.552 31.7016H106.364L107.021 27.5429H107.05L109.044 31.7016H112.544L109.846 27.27Z" fill="#1E5CB2"/>
<path id="Vector_13" d="M115.981 31.7073H113.168L114.882 20.894H117.693L115.981 31.7073Z" fill="#1E5CB2"/>
<path id="Vector_14" d="M100.649 10.1111L96.2239 17.154L90.2085 27.3405L89.8566 23.5433L89.5807 19.4154H84.0555L84 19.7411C85.4183 19.7411 86.2574 20.4548 86.4909 21.916L87.5644 31.541L87.5711 31.5196L87.5855 31.6608H91.3843L98.1734 17.9285L102.29 10.1111H100.649Z" fill="#1E5CB2"/>
<path id="Vector_15" d="M91.1295 21.7126H91.4499L95.4464 14.9426L95.4481 14.6249H86.3564V14.9483L90.7379 16.8131L91.1295 21.7126Z" fill="#F9B10B"/>
</g>
<g id="surface1">
<path id="Vector_16" fill-rule="evenodd" clip-rule="evenodd" d="M251.24 24.948C251.24 24.0973 251.912 23.4035 252.717 23.4035C253.545 23.4035 254.195 24.0973 254.195 24.948C254.195 25.7987 253.545 26.4925 252.717 26.4925C251.912 26.5147 251.24 25.8209 251.24 24.948ZM252.717 26.1567C253.344 26.1567 253.837 25.6197 253.837 24.9702C253.837 24.3207 253.322 23.7837 252.717 23.7837C252.091 23.7837 251.598 24.3207 251.598 24.9702C251.598 25.6197 252.091 26.1567 252.717 26.1567ZM252.515 25.6419H252.202V24.2763H252.763C252.873 24.2763 253.008 24.2763 253.098 24.3428C253.209 24.411 253.255 24.544 253.255 24.6787C253.255 24.8355 253.165 24.9702 253.03 25.0145L253.277 25.6197H252.942L252.74 25.081H252.515V25.6419ZM252.515 24.8798H252.694C252.763 24.8798 252.829 24.8798 252.873 24.8577C252.918 24.8355 252.942 24.769 252.942 24.7008C252.942 24.6565 252.918 24.59 252.873 24.5679C252.829 24.544 252.74 24.544 252.694 24.544H252.538L252.515 24.8798Z" fill="#FD0C15"/>
<path id="Vector_17" fill-rule="evenodd" clip-rule="evenodd" d="M230.084 14.6274L229.682 17.2697C228.809 16.7992 228.16 16.6202 227.466 16.6202C225.63 16.6202 224.331 18.5006 224.331 21.1651C224.331 22.9995 225.203 24.1195 226.637 24.1195C227.241 24.1195 227.912 23.9183 228.741 23.4921L228.315 26.2692C227.398 26.5368 226.816 26.6272 226.122 26.6272C223.458 26.6272 221.801 24.6122 221.801 21.3885C221.801 17.0447 224.085 14 227.375 14C227.8 14 228.182 14.0443 228.495 14.1347L229.525 14.404C229.793 14.5148 229.861 14.537 230.084 14.6274Z" fill="#FD0C15"/>
<path id="Vector_18" fill-rule="evenodd" clip-rule="evenodd" d="M221.87 16.4412C221.801 16.4191 221.713 16.4191 221.622 16.4191C220.816 16.4191 220.347 16.8436 219.585 18.0301L219.809 16.5299H217.57L216.048 26.4022H218.533C219.428 20.3588 219.652 19.3291 220.838 19.3291C220.906 19.3291 220.929 19.3291 221.017 19.3291C221.242 18.1426 221.532 17.2697 221.958 16.4634L221.87 16.4412Z" fill="#FD0C15"/>
<path id="Vector_19" fill-rule="evenodd" clip-rule="evenodd" d="M207.069 26.2692C206.397 26.4925 205.86 26.6033 205.301 26.6033C204.048 26.6033 203.354 25.843 203.354 24.4331C203.354 24.1638 203.377 23.8501 203.421 23.5364L203.578 22.5749L203.689 21.7908L204.764 15.0518H207.226L206.936 16.5077H208.211L207.853 18.9029H206.599L205.951 23.0216C205.929 23.2006 205.905 23.3353 205.905 23.4256C205.905 23.9405 206.174 24.1638 206.757 24.1638C207.047 24.1638 207.248 24.1416 207.427 24.0751L207.069 26.2692Z" fill="#FD0C15"/>
<path id="Vector_20" fill-rule="evenodd" clip-rule="evenodd" d="M197.31 19.6411C197.31 20.8958 197.892 21.7465 199.191 22.396C200.176 22.8886 200.355 23.0438 200.355 23.4921C200.355 24.0973 199.907 24.3871 198.944 24.3871C198.205 24.3871 197.534 24.2763 196.727 23.9848L196.392 26.2692L196.504 26.2914L196.952 26.38C197.109 26.4022 197.31 26.4465 197.6 26.4704C198.183 26.5147 198.654 26.559 198.966 26.559C201.564 26.559 202.773 25.5072 202.773 23.2688C202.773 21.9255 202.28 21.1191 201.027 20.5156C199.997 20.0229 199.885 19.9104 199.885 19.4399C199.885 18.9029 200.287 18.6353 201.093 18.6353C201.586 18.6353 202.236 18.7017 202.863 18.7904L203.221 16.5077C202.571 16.3952 201.608 16.3065 201.049 16.3065C198.25 16.3065 197.288 17.8067 197.31 19.6411Z" fill="#FD0C15"/>
<path id="Vector_21" fill-rule="evenodd" clip-rule="evenodd" d="M249.807 26.38H247.456L247.568 25.4185C246.897 26.1788 246.181 26.5146 245.286 26.5146C243.472 26.5146 242.285 24.8798 242.285 22.4181C242.285 19.1262 244.121 16.3508 246.315 16.3508C247.277 16.3508 247.994 16.777 248.688 17.6942L249.225 14.2233H251.665L249.807 26.38ZM246.158 24.0751C247.323 24.0751 248.127 22.7096 248.127 20.7389C248.127 19.4859 247.659 18.7904 246.806 18.7904C245.688 18.7904 244.882 20.1797 244.882 22.1044C244.882 23.4035 245.308 24.0751 246.158 24.0751Z" fill="#FD0C15"/>
<path id="Vector_22" fill-rule="evenodd" clip-rule="evenodd" d="M214.905 26.1788C214.054 26.4465 213.25 26.5811 212.355 26.5811C209.6 26.5811 208.146 25.0588 208.146 22.1488C208.146 18.746 209.98 16.2622 212.465 16.2622C214.503 16.2622 215.802 17.672 215.802 19.8661C215.802 20.5821 215.711 21.2981 215.488 22.3056H210.563C210.541 22.4624 210.541 22.5306 210.541 22.6193C210.541 23.7836 211.279 24.365 212.713 24.365C213.585 24.365 214.392 24.1638 215.287 23.7393L214.905 26.1788ZM213.517 20.2906C213.541 20.0894 213.541 19.9104 213.541 19.7979C213.541 18.9915 213.115 18.5227 212.377 18.5227C211.593 18.5227 211.033 19.1501 210.808 20.2906H213.517Z" fill="#FD0C15"/>
<path id="Vector_23" fill-rule="evenodd" clip-rule="evenodd" d="M187.369 26.38H184.907L186.317 17.0447L183.138 26.38H181.458L181.257 17.1129L179.757 26.38H177.452L179.377 14.2472H182.936L183.027 21.7686L185.444 14.2472H189.295L187.369 26.38Z" fill="#FD0C15"/>
<path id="Vector_24" fill-rule="evenodd" clip-rule="evenodd" d="M193.75 21.9919C193.481 21.9698 193.37 21.9476 193.191 21.9476C191.779 21.9476 191.085 22.4625 191.085 23.4478C191.085 24.053 191.443 24.4553 191.98 24.4553C192.966 24.4553 193.706 23.4478 193.75 21.9919ZM195.54 26.38H193.481L193.525 25.3503C192.899 26.1788 192.071 26.5368 190.928 26.5368C189.585 26.5368 188.668 25.4407 188.668 23.8501C188.668 21.4328 190.279 20.0451 193.012 20.0451C193.302 20.0451 193.66 20.0673 194.018 20.1116C194.086 19.7758 194.108 19.6411 194.108 19.4621C194.108 18.8143 193.683 18.5671 192.519 18.5671C191.825 18.5671 191.019 18.6796 190.458 18.8586L190.146 18.9694L189.921 19.0376L190.257 16.8214C191.488 16.4412 192.316 16.2844 193.213 16.2844C195.339 16.2844 196.459 17.2919 196.459 19.1723C196.459 19.6649 196.413 20.0229 196.256 21.1413L195.765 24.6565L195.675 25.2838L195.608 25.7748L195.564 26.1345L195.54 26.38Z" fill="#FD0C15"/>
<path id="Vector_25" fill-rule="evenodd" clip-rule="evenodd" d="M234.36 21.9919C234.115 21.9698 233.98 21.9476 233.801 21.9476C232.391 21.9476 231.674 22.4624 231.674 23.4478C231.674 24.053 232.033 24.4553 232.57 24.4553C233.578 24.4553 234.316 23.4478 234.36 21.9919ZM236.152 26.38H234.093L234.137 25.3503C233.51 26.1788 232.681 26.5368 231.541 26.5368C230.197 26.5368 229.278 25.4407 229.278 23.8501C229.278 21.4328 230.891 20.0451 233.622 20.0451C233.89 20.0451 234.272 20.0672 234.63 20.1116C234.696 19.7757 234.718 19.6411 234.718 19.4621C234.718 18.8142 234.294 18.567 233.129 18.567C232.436 18.567 231.629 18.6796 231.07 18.8586L230.712 18.9472L230.487 19.0154L230.823 16.7992C232.055 16.419 232.884 16.2622 233.779 16.2622C235.905 16.2622 237.025 17.2697 237.025 19.1501C237.025 19.6411 236.98 20.0008 236.824 21.1191L236.309 24.6121L236.241 25.2395L236.174 25.7305L236.13 26.0663L236.152 26.38Z" fill="#FD0C15"/>
<path id="Vector_26" fill-rule="evenodd" clip-rule="evenodd" d="M243.069 16.4412C243.001 16.4191 242.912 16.4191 242.822 16.4191C242.015 16.4191 241.545 16.8436 240.784 18.0301L241.009 16.5299H238.769L237.247 26.4022H239.733C240.628 20.3588 240.851 19.3291 242.037 19.3291C242.106 19.3291 242.106 19.3291 242.218 19.3291C242.441 18.1426 242.755 17.2697 243.157 16.4634L243.069 16.4412Z" fill="#FD0C15"/>
<path id="Vector_27" fill-rule="evenodd" clip-rule="evenodd" d="M232.681 35.9847C232.681 38.223 231.987 39.5442 230.891 39.5442C230.084 39.5664 229.614 38.6714 229.614 37.3502C229.614 35.7835 230.33 33.9918 231.45 33.9918C232.367 33.9918 232.681 34.955 232.681 35.9847ZM235.122 36.0068C235.122 33.5213 233.889 31.5744 231.584 31.5744C228.92 31.5744 227.196 33.9253 227.196 37.3945C227.196 39.88 228.226 41.9172 230.734 41.9172C233.264 41.9172 235.122 40.1255 235.122 36.0068Z" fill="#F3AE12"/>
<path id="Vector_28" fill-rule="evenodd" clip-rule="evenodd" d="M227.98 29.8509L227.598 32.4916C226.771 32.0228 226.188 31.8421 225.538 31.8421C223.815 31.8421 222.606 33.7242 222.606 36.387C222.606 38.223 223.412 39.3431 224.756 39.3431C225.337 39.3431 225.965 39.1402 226.725 38.7157L226.323 41.4911C225.472 41.7604 224.911 41.8491 224.263 41.8491C221.778 41.8491 220.211 39.8357 220.211 36.6103C220.211 32.2683 222.359 29.2236 225.428 29.2236C225.83 29.2236 226.166 29.2679 226.457 29.3582L227.397 29.6259C227.71 29.7162 227.777 29.7384 227.98 29.8509Z" fill="#F3AE12"/>
<path id="Vector_29" fill-rule="evenodd" clip-rule="evenodd" d="M212.688 31.6409C212.622 31.6187 212.533 31.6187 212.443 31.6187C211.682 31.6187 211.256 32.0449 210.54 33.2297L210.764 31.7312H208.682L207.271 41.6035H209.577C210.406 35.5584 210.629 34.5287 211.727 34.5287C211.793 34.5287 211.793 34.5287 211.906 34.5509C212.107 33.3644 212.398 32.4916 212.779 31.6852L212.688 31.6409Z" fill="#F3AE12"/>
<path id="Vector_30" fill-rule="evenodd" clip-rule="evenodd" d="M242.867 41.5132H240.673L240.785 40.5517C240.158 41.312 239.486 41.6479 238.635 41.6479C236.956 41.6479 235.838 40.013 235.838 37.5513C235.838 34.2611 237.561 31.4841 239.599 31.4841C240.494 31.4841 241.187 31.9102 241.815 32.8496L242.33 29.3804H244.614L242.867 41.5132ZM239.442 39.1862C240.54 39.1862 241.278 37.8207 241.278 35.85C241.278 34.597 240.852 33.9253 240.047 33.9253C238.995 33.9253 238.255 35.2908 238.255 37.2376C238.255 38.5367 238.658 39.1862 239.442 39.1862Z" fill="#F3AE12"/>
<path id="Vector_31" fill-rule="evenodd" clip-rule="evenodd" d="M191.02 41.4689C190.236 41.7382 189.476 41.8729 188.647 41.8729C186.073 41.8729 184.729 40.3506 184.729 37.4388C184.729 34.06 186.453 31.5523 188.758 31.5523C190.662 31.5523 191.871 32.94 191.871 35.1561C191.871 35.8722 191.78 36.5882 191.579 37.5957H186.99C186.968 37.7525 186.968 37.8207 186.968 37.9093C186.968 39.0515 187.662 39.6329 189.005 39.6329C189.834 39.6329 190.572 39.4317 191.4 39.0072L191.02 41.4689ZM189.721 35.5806C189.721 35.3795 189.743 35.2005 189.743 35.0897C189.743 34.2833 189.341 33.8128 188.647 33.8128C187.907 33.8128 187.392 34.4401 187.169 35.5806H189.721Z" fill="#F3AE12"/>
<path id="Vector_32" fill-rule="evenodd" clip-rule="evenodd" d="M218.511 41.4689C217.727 41.7382 216.966 41.8729 216.138 41.8729C213.541 41.8729 212.196 40.3506 212.196 37.4388C212.196 34.06 213.922 31.5523 216.226 31.5523C218.129 31.5523 219.361 32.94 219.361 35.1561C219.361 35.8722 219.271 36.5882 219.07 37.5957H214.481C214.459 37.7525 214.459 37.8207 214.459 37.9093C214.459 39.0515 215.152 39.6329 216.496 39.6329C217.324 39.6329 218.062 39.4317 218.891 39.0072L218.511 41.4689ZM217.212 35.5806C217.234 35.3795 217.234 35.2005 217.234 35.0897C217.234 34.2833 216.832 33.8128 216.138 33.8128C215.398 33.8128 214.883 34.4401 214.66 35.5806H217.212Z" fill="#F3AE12"/>
<path id="Vector_33" fill-rule="evenodd" clip-rule="evenodd" d="M250.747 41.4689C249.941 41.7382 249.181 41.8729 248.374 41.8729C245.8 41.8729 244.435 40.3506 244.435 37.4388C244.435 34.06 246.158 31.5523 248.487 31.5523C250.389 31.5523 251.598 32.94 251.598 35.1561C251.598 35.8722 251.508 36.5882 251.306 37.5957H246.717C246.695 37.7525 246.695 37.8207 246.695 37.9093C246.695 39.0515 247.389 39.6329 248.732 39.6329C249.561 39.6329 250.299 39.4317 251.127 39.0072L250.747 41.4689ZM249.448 35.5806C249.448 35.3795 249.47 35.2005 249.47 35.0897C249.47 34.2833 249.068 33.8128 248.374 33.8128C247.634 33.8128 247.121 34.4401 246.896 35.5806H249.448Z" fill="#F3AE12"/>
<path id="Vector_34" fill-rule="evenodd" clip-rule="evenodd" d="M184.168 32.0893C183.721 31.7756 183.094 31.5301 182.243 31.5301C181.302 31.5301 180.564 31.7313 180.564 32.7149C180.564 34.4623 183.967 33.8128 183.967 37.5735C183.967 40.9984 181.728 41.8951 179.691 41.8951C178.796 41.8951 177.743 41.6036 176.982 41.2456L177.542 38.7379C178.012 39.1641 178.931 39.4539 179.713 39.4539C180.452 39.4539 181.572 39.2527 181.572 37.9758C181.572 35.9847 178.169 36.7228 178.169 33.2298C178.169 30.0299 180.162 29.0889 182.086 29.0889C183.16 29.0889 184.192 29.2457 184.773 29.6481L184.168 32.0893Z" fill="#F3AE12"/>
<path id="Vector_35" fill-rule="evenodd" clip-rule="evenodd" d="M197.78 41.4689C197.31 41.6922 196.66 41.849 195.719 41.849C193.706 41.849 192.451 39.8357 192.451 37.3723C192.451 34.1486 194.265 31.5966 196.928 31.5966C197.511 31.5966 198.406 31.8421 199.1 32.2461L198.587 34.597C198.092 34.2611 197.577 34.06 197.04 34.06C195.81 34.06 194.915 35.2005 194.915 37.2155C194.915 38.3798 195.564 39.343 196.572 39.343C197.175 39.343 197.6 39.2084 198.116 38.9168L197.78 41.4689Z" fill="#F3AE12"/>
<path id="Vector_36" fill-rule="evenodd" clip-rule="evenodd" d="M206.421 38.9833C206.31 39.8357 206.198 40.6625 206.131 41.5354H203.915L204.094 39.9465H204.072C203.378 41.0222 202.662 41.7604 201.385 41.7604C199.997 41.7604 199.235 40.2824 199.235 38.3798C199.235 37.7082 199.28 37.3502 199.414 36.3205L200.042 31.7534H202.527L201.856 36.3426C201.787 36.8353 201.699 37.328 201.699 37.8428C201.699 38.4242 201.966 39.0072 202.638 38.9612C203.646 38.9612 204.251 37.7303 204.43 36.2762L205.124 31.7534H207.519L206.421 38.9833Z" fill="#F3AE12"/>
<path id="Vector_37" fill-rule="evenodd" clip-rule="evenodd" d="M253.052 41.4245H252.672V39.7897H252.135V39.4317H253.589V39.7897H253.052V41.4245Z" fill="#F3AE12"/>
<path id="Vector_38" fill-rule="evenodd" clip-rule="evenodd" d="M255.539 41.4245H255.181V39.7675L254.845 41.4245H254.487L254.151 39.7675V41.4245H253.793V39.4317H254.352L254.666 40.9984H254.688L255.002 39.4317H255.539V41.4245Z" fill="#F3AE12"/>
</g>
<g id="Group 324">
<path id="XMLID_2007_" d="M56 51.9403L0 56V0H56V51.9403Z" fill="#61259E"/>
<g id="XMLID_15_">
<g id="XMLID_375_">
<path id="XMLID_191_" d="M28.7777 33.4173L26.1527 33.4108L26.172 19.3787L21.2373 19.3658V16.5606L33.7382 16.5799L33.7318 19.3851L28.797 19.3787L28.7777 33.4173Z" fill="white"/>
<path id="XMLID_183_" d="M41.1762 39.9347H40.6808L37.8628 36.4154V39.9347H37.2773V35.3217H37.7341L40.5908 38.9182V35.3281H41.1762V39.9347Z" fill="white"/>
<path id="XMLID_182_" d="M45.3002 39.9347L43.6274 37.6958L42.8232 38.5257V39.9347H42.2441V35.3281H42.8232V37.8759L45.2037 35.3217H45.8342L43.9813 37.3548L45.9372 39.9347H45.3002Z" fill="white"/>
<path id="XMLID_176_" d="M26.1855 35.2638H9.6377V39.9412H26.1855V35.2638Z" fill="#FFC629"/>
<path id="XMLID_172_" d="M17.1909 16.0652L9.79199 33.4173H12.6679L14.4308 29.0937H19.9703L21.7139 33.4173H24.6284L17.1909 16.0652ZM15.5824 26.2822L17.1909 22.2868L18.8122 26.2822H15.5824Z" fill="white"/>
<path id="XMLID_168_" d="M44.4826 24.1075C44.8879 23.6378 45.4605 22.75 45.3833 21.1994C45.3383 20.2601 45.1581 19.5266 44.8172 18.9026C44.7206 18.7288 44.3475 18.1755 44.1352 17.9375C43.3116 17.0239 42.2887 16.5671 41.0984 16.5671H34.8447V33.4108H41.6067C42.932 33.4108 44.0644 32.8961 44.9716 31.8796C45.898 30.8823 46.3677 29.6535 46.3677 28.2187C46.3613 26.4816 45.7308 25.0983 44.4826 24.1075ZM37.4697 19.398H41.0984C41.5616 19.398 41.9412 19.5652 42.2501 19.8998C42.5846 20.2794 42.7455 20.7105 42.7455 21.2187C42.7455 21.7334 42.5846 22.1581 42.2565 22.5184C41.9348 22.8658 41.5423 23.0459 41.0984 23.0459H37.4697V19.398ZM43.0929 29.9173C42.6876 30.3676 42.1922 30.5928 41.6067 30.5928H37.4697V25.8575H41.6067C42.1922 25.8575 42.694 26.0891 43.0929 26.5459C43.524 27.0092 43.7363 27.5625 43.7363 28.2252C43.7363 28.8878 43.5175 29.4605 43.0929 29.9173Z" fill="white"/>
<path id="XMLID_164_" d="M32.1175 38.0046C31.9631 37.7923 31.7572 37.6507 31.4935 37.5735C31.7058 37.477 31.8666 37.3355 31.9824 37.136C32.0982 36.943 32.1561 36.7307 32.1561 36.4991C32.1561 36.3575 32.1304 36.216 32.0789 36.0744C32.0275 35.9329 31.9567 35.8107 31.8666 35.6948C31.7765 35.5855 31.6672 35.4954 31.5385 35.4246C31.4098 35.3539 31.2618 35.3217 31.101 35.3217H28.8105V39.9347H30.998C31.1846 39.9347 31.3583 39.909 31.5192 39.8511C31.68 39.7932 31.8216 39.716 31.9503 39.613C32.0725 39.5101 32.169 39.3814 32.2398 39.2334C32.3105 39.0855 32.3491 38.9246 32.3491 38.7445C32.3491 38.4614 32.2719 38.2105 32.1175 38.0046ZM29.3896 35.83H30.8951C30.9916 35.83 31.0817 35.8493 31.1653 35.8879C31.249 35.9265 31.3197 35.9779 31.3776 36.0487C31.4355 36.1195 31.4806 36.2031 31.5192 36.2932C31.5514 36.3897 31.5707 36.4926 31.5707 36.5956C31.5707 36.6985 31.5514 36.795 31.5128 36.8915C31.4741 36.9816 31.4291 37.0653 31.3648 37.136C31.3004 37.2068 31.2297 37.2583 31.1396 37.3033C31.056 37.3419 30.9594 37.3676 30.8565 37.3676H29.3896V35.83ZM31.6993 38.9439C31.6607 39.0404 31.6093 39.1241 31.5385 39.1948C31.4677 39.2656 31.3905 39.3235 31.3004 39.3686C31.2104 39.4136 31.1074 39.4329 31.0045 39.4329H29.4025V37.8437H31.0495C31.1525 37.8437 31.249 37.863 31.3326 37.9081C31.4162 37.9531 31.4935 38.011 31.5578 38.0818C31.6221 38.1526 31.6736 38.2426 31.7058 38.3392C31.7444 38.4357 31.7637 38.5386 31.7637 38.6415C31.7572 38.7445 31.7379 38.8474 31.6993 38.9439Z" fill="white"/>
<path id="XMLID_161_" d="M34.8713 35.3217H34.3759L32.4844 39.9347H33.1085L33.6489 38.5836H35.5855L36.1324 39.9347H36.7564L34.8713 35.3217ZM33.7647 38.1333L34.6204 36.0037L35.4504 38.1333H33.7647Z" fill="white"/>
</g>
</g>
</g>
</g>
</svg>
