<svg width="152" height="18" viewBox="0 0 152 18" fill="none" xmlns="http://www.w3.org/2000/svg">
<path fill-rule="evenodd" clip-rule="evenodd" d="M127.398 0.164192C125.562 1.01616 126.142 3.67416 128.162 3.66358C128.893 3.65942 129.776 3.17085 129.776 2.77077C129.776 2.70837 129.809 2.6248 129.849 2.5851C129.981 2.45312 129.994 1.61099 129.869 1.21582C129.576 0.290115 128.298 -0.25404 127.398 0.164192ZM57.8071 0.676205C56.1868 0.92427 55.4871 1.90443 55.3404 4.12908L55.2979 4.77495H54.7372H54.1768V6.16162V7.54792H54.7466H55.3165V10.7939V14.0396H56.8676H58.4191V10.7939V7.54792H59.4638H60.5085V6.16162V4.77495H59.4555H58.4028L58.4446 4.44408C58.5783 3.38261 58.8917 3.21169 60.3501 3.40341C60.4724 3.41929 60.4774 3.37845 60.4937 2.17783L60.5112 0.935993L60.2722 0.872842C59.5227 0.67507 58.3986 0.585449 57.8071 0.676205ZM102.107 3.16971V5.40911L101.818 5.24877C101.66 5.16067 101.453 5.03172 101.358 4.96176C101.049 4.73449 100.277 4.50836 99.6952 4.47508C96.6002 4.29622 94.3432 7.32821 95.0776 10.6782C95.7918 13.9345 99.6173 15.475 101.979 13.4572C102.105 13.3491 102.107 13.3521 102.107 13.6936V14.0396H103.627H105.146V7.48514V0.930321H103.627H102.107V3.16971ZM119.772 3.16782V4.77495H119.171H118.569V6.16162V7.54792H119.171H119.772V9.71055C119.772 12.9411 120.044 13.6864 121.4 14.181C122.092 14.4332 123.849 14.3814 124.492 14.0899L124.648 14.0192V12.8023V11.585L124.062 11.6194C122.933 11.686 122.865 11.5548 122.825 9.23408L122.796 7.54792H123.722H124.648V6.16162V4.77495H123.729H122.812V3.16782V1.56069H121.292H119.772V3.16782ZM65.9259 4.08483C63.8493 4.3295 62.1083 5.72978 61.5027 7.64245C61.3295 8.19039 61.2976 10.0588 61.4526 10.6049C61.5517 10.955 62.0521 11.9912 62.1512 12.052C62.1862 12.0736 62.2606 12.1874 62.3165 12.3054C62.3727 12.423 62.7423 12.811 63.1382 13.1672C63.844 13.8029 63.95 13.9469 64.1183 14.4964L64.1905 14.7327H66.4828H68.7747L68.9597 14.3073C69.1174 13.9454 69.2591 13.7692 69.9117 13.1256C70.6077 12.4396 71.1456 11.7677 71.1456 11.5843C71.1456 11.5453 71.2064 11.3948 71.2805 11.25C71.9943 9.85765 71.7189 7.20153 70.7528 6.15482C70.6727 6.06822 70.455 5.82167 70.2688 5.60688C70.0823 5.39171 69.906 5.21625 69.8768 5.21625C69.8475 5.21625 69.6131 5.06613 69.3563 4.88235C68.4913 4.26445 67.1149 3.94454 65.9259 4.08483ZM89.2222 4.50269C88.7493 4.60819 88.2413 4.82979 87.8014 5.12285L87.2912 5.46281V5.11907V4.77495H85.7397H84.1886V9.40727V14.0396H85.7374H87.2859L87.3045 11.3453C87.3228 8.66686 87.3235 8.64909 87.4724 8.32161C88.0408 7.07032 89.6937 6.8941 90.267 8.024L90.4254 8.33598L90.444 11.1876L90.463 14.0396H92.0164H93.5698L93.542 10.9985C93.5063 7.06994 93.4547 6.76515 92.6557 5.74944C91.9028 4.79197 90.3897 4.24252 89.2222 4.50269ZM110.156 4.58853C109.271 4.8192 107.552 6.01755 107.552 6.40402C107.552 6.43616 107.438 6.65738 107.297 6.89523C106.821 7.70334 106.706 8.18207 106.702 9.37589C106.696 10.7353 106.758 10.9528 107.556 12.3909C108.658 14.375 111.947 14.9585 113.71 13.4826C113.813 13.396 113.821 13.4119 113.821 13.7148V14.0396H115.372H116.923V9.40727V4.77495H115.372H113.821V5.09789C113.821 5.37886 113.808 5.41024 113.725 5.34142C112.817 4.59155 111.34 4.27996 110.156 4.58853ZM135.316 4.49588C135.247 4.51252 134.99 4.57038 134.746 4.62483C130.223 5.63524 129.718 12.2112 134.031 13.9428C137.579 15.3669 141.294 13.087 141.318 9.47042C141.324 8.4827 141.05 7.43977 140.64 6.89523C140.558 6.78633 140.473 6.64036 140.452 6.57116C140.272 6.00053 138.835 5.01054 137.659 4.64714C137.228 4.51365 135.667 4.41307 135.316 4.49588ZM147.6 4.52538C147.023 4.66302 146.037 5.17617 145.877 5.42197C145.847 5.4681 145.814 5.35844 145.795 5.1531L145.763 4.80634L144.228 4.7897L142.693 4.77269V9.40727V14.0419L144.228 14.0248L145.763 14.0082L145.795 11.2666L145.827 8.52505L146.017 8.1798C146.509 7.28473 147.794 6.97124 148.42 7.59329C148.908 8.07922 148.958 8.45056 148.96 11.5657L148.961 14.0396H150.481H152V10.8983C152 7.11267 151.981 6.98637 151.229 5.87499C150.517 4.82487 148.886 4.21832 147.6 4.52538ZM72.7929 7.84741C72.7944 11.1089 72.8217 11.4954 73.1051 12.215C73.3095 12.7342 73.9861 13.5578 74.3835 13.7711C74.562 13.8668 74.7972 13.9931 74.9055 14.0513C75.9646 14.6227 77.9036 14.33 78.8541 13.4553L78.9966 13.3245V13.6819V14.0396H80.5481H82.0992V9.40727V4.77495H80.5503H79.0019L78.9833 7.50065L78.965 10.2267L78.7926 10.5417C78.0533 11.8932 76.3844 11.8959 75.9342 10.5463C75.845 10.2781 75.8309 9.8637 75.8309 7.50519V4.77495H74.3113H72.7917L72.7929 7.84741ZM126.61 9.40727V14.0396H128.162H129.713V9.40727V4.77495H128.162H126.61V9.40727ZM67.9435 6.28301C68.9605 6.77536 69.6033 7.66136 69.7332 8.75005C69.8494 9.72454 68.8769 9.77408 68.7382 8.80072C68.5901 7.75779 67.8808 7.05179 66.8718 6.9425C66.2784 6.87822 66.0539 6.57834 66.3092 6.19074C66.4892 5.91734 67.2802 5.96196 67.9435 6.28301ZM100.809 7.45603C102.11 8.06901 102.435 9.6179 101.514 10.82C100.526 12.1103 98.5073 11.5794 98.0738 9.91588C97.6445 8.26829 99.3248 6.75721 100.809 7.45603ZM112.236 7.33275C114.165 7.903 114.365 10.5364 112.541 11.3646C111.214 11.9677 109.8 10.9562 109.8 9.40273C109.8 8.02703 111.035 6.97767 112.236 7.33275ZM136.551 7.30136C137.534 7.52636 138.165 8.34883 138.165 9.40727C138.165 11.6954 135.374 12.3549 134.351 10.3088C133.633 8.87219 135.036 6.9546 136.551 7.30136ZM50.3144 11.1615C49.6959 11.4122 49.2803 12.2135 49.3992 12.9263C49.7434 14.9823 52.7454 14.7373 52.7454 12.6529C52.745 11.3831 51.5608 10.6563 50.3144 11.1615ZM64.2441 16.3591C64.2441 17.086 64.4029 17.497 64.801 17.8003L65.0354 17.9788L66.4486 17.9977C68.4563 18.0249 68.7394 17.8283 68.7394 16.4042V15.7413H66.4919H64.2441V16.3591Z" fill="#F4C454"/>
<path fill-rule="evenodd" clip-rule="evenodd" d="M1.08611 0.165739C-0.311524 0.799894 -0.376106 2.92282 0.984302 3.50554C2.36864 4.09848 3.61774 3.31004 3.61736 1.84434C3.61698 0.49435 2.29456 -0.382576 1.08611 0.165739ZM12.0081 3.13647C12.0081 4.34957 11.9914 5.34221 11.9713 5.34221C11.9511 5.34221 11.7874 5.2454 11.6073 5.12704C9.25654 3.58117 6.19724 4.78217 5.20039 7.64249C3.94673 11.2398 6.72491 14.9252 10.2078 14.2858C10.6337 14.2075 11.5177 13.809 11.8117 13.5624L12.0081 13.3983V13.719V14.0396H13.5912H15.1738V7.48518V0.930355H13.5912H12.0081V3.13647ZM20.2838 4.5568C18.5841 4.89335 17.3544 5.91019 16.8518 7.3948C16.16 9.43793 16.5133 11.5552 17.7647 12.8655C18.0994 13.2156 18.7707 13.7246 18.8983 13.7246C18.9306 13.7246 19.124 13.798 19.328 13.8876C20.7777 14.5259 23.087 14.5047 24.7662 13.8381C25.706 13.4648 25.6479 13.5919 25.2984 12.673C25.156 12.2982 25.0097 11.8777 24.9732 11.7393C24.8517 11.2761 24.7464 11.0458 24.661 11.056C24.6146 11.0617 24.2218 11.1551 23.7883 11.264C21.7042 11.7881 20.4582 11.5404 19.9161 10.4945L19.7933 10.2581H22.9693H26.1452L26.1099 9.23411C26.0867 8.5629 26.0377 8.07963 25.9678 7.83156C25.9089 7.62358 25.8337 7.33997 25.8006 7.20157C25.3524 5.31423 22.7527 4.06823 20.2838 4.5568ZM30.8164 4.55793C27.1497 5.3494 25.9537 10.5928 28.8398 13.2258C30.3131 14.5702 32.6031 14.7123 34.153 13.5563L34.3586 13.4028V13.7212V14.0396H35.8782H37.3977V9.4073V4.77499H35.8782H34.3586V5.09793C34.3586 5.37889 34.3464 5.41028 34.2628 5.34145C33.4039 4.63205 31.977 4.3076 30.8164 4.55793ZM42.3364 4.5515C40.2603 4.93419 39.2588 5.95405 39.2699 7.67425C39.2813 9.45495 40.4658 10.3663 43.2861 10.763C44.6849 10.9596 45.0306 11.092 44.8794 11.3733C44.6139 11.8675 42.9594 11.8271 41.1967 11.2833C40.5839 11.0942 40.0973 10.8783 40.0259 10.7633C39.8473 10.4756 39.4093 11.4629 39.0032 13.0689C38.8721 13.587 41.4102 14.324 43.318 14.3221C44.808 14.3206 45.33 14.2113 46.5787 13.6395C48.4288 12.7921 48.4846 9.31731 46.6588 8.64571C46.4928 8.58483 46.3287 8.5145 46.2938 8.48954C46.2588 8.46458 45.9982 8.37156 45.7144 8.28269C45.2171 8.12727 44.8855 8.06261 43.3811 7.82664C42.646 7.71169 42.3998 7.60883 42.3998 7.41635C42.3998 6.88619 44.2853 6.91115 45.7555 7.4606C46.6429 7.79223 46.5624 7.83232 46.8458 6.91795C47.182 5.8338 47.2971 5.26923 47.1953 5.20381C46.3466 4.65928 43.6877 4.3023 42.3364 4.5515ZM0.294791 9.4073V14.0396H1.84591H3.39702V9.4073V4.77499H1.84591H0.294791V9.4073ZM21.7031 6.98829C22.0955 7.07224 22.5647 7.46854 22.7691 7.88942C22.9818 8.32656 23.0593 8.30425 21.3156 8.30425C20.4449 8.30425 19.7326 8.28912 19.7326 8.27097C19.7326 7.55816 20.8783 6.81245 21.7031 6.98829ZM10.7697 7.44963C12.4025 8.24904 12.4268 10.5584 10.8103 11.3423C8.91388 12.2619 7.14888 9.83159 8.44394 8.08379C9.00277 7.32976 9.97987 7.06316 10.7697 7.44963ZM33.2421 7.53661C34.9983 8.47441 34.5215 11.2179 32.5453 11.5469C31.1283 11.7825 29.8454 9.95297 30.4806 8.60223C31.0592 7.37098 32.1464 6.95123 33.2421 7.53661Z" fill="#04549C"/>
</svg>
