<svg width="15" height="15" viewBox="0 0 15 15" fill="none" xmlns="http://www.w3.org/2000/svg">
<path d="M7.49999 4.85272C6.03548 4.85272 4.84825 6.03795 4.84825 7.5C4.84825 8.96205 6.03548 10.1473 7.49999 10.1473C8.9645 10.1473 10.1517 8.96205 10.1517 7.5C10.1517 6.03795 8.9645 4.85272 7.49999 4.85272Z" fill="#4464B4"/>
<path fill-rule="evenodd" clip-rule="evenodd" d="M3.23236 0.235432C6.04574 -0.0784772 8.95426 -0.0784772 11.7676 0.235432C13.3166 0.408257 14.5659 1.62664 14.7477 3.1784C15.0841 6.04968 15.0841 8.95032 14.7477 11.8216C14.5659 13.3734 13.3166 14.5917 11.7676 14.7646C8.95426 15.0785 6.04575 15.0785 3.23236 14.7646C1.68342 14.5917 0.434089 13.3734 0.252291 11.8216C-0.084097 8.95032 -0.084097 6.04968 0.252291 3.1784C0.434089 1.62664 1.68342 0.408257 3.23236 0.235432ZM11.5796 2.61271C11.129 2.61271 10.7637 2.9774 10.7637 3.42726C10.7637 3.87712 11.129 4.24181 11.5796 4.24181C12.0302 4.24181 12.3955 3.87712 12.3955 3.42726C12.3955 2.9774 12.0302 2.61271 11.5796 2.61271ZM3.62438 7.5C3.62438 5.36315 5.35955 3.6309 7.49999 3.6309C9.64043 3.6309 11.3756 5.36315 11.3756 7.5C11.3756 9.63685 9.64043 11.3691 7.49999 11.3691C5.35955 11.3691 3.62438 9.63685 3.62438 7.5Z" fill="#4464B4"/>
</svg>
