<svg width="27" height="27" viewBox="0 0 27 27" fill="none" xmlns="http://www.w3.org/2000/svg">
<path d="M10.4143 16.298C11.0534 16.298 11.5714 16.7955 11.5714 17.4092V20.3725C11.5714 20.9862 11.0534 21.4837 10.4143 21.4837C9.77521 21.4837 9.25714 20.9862 9.25714 20.3725V17.4092C9.25714 16.7955 9.77521 16.298 10.4143 16.298Z" fill="#4464B4"/>
<path d="M17.7429 17.4092C17.7429 16.7955 17.2248 16.298 16.5857 16.298C15.9466 16.298 15.4286 16.7955 15.4286 17.4092V20.3725C15.4286 20.9862 15.9466 21.4837 16.5857 21.4837C17.2248 21.4837 17.7429 20.9862 17.7429 20.3725V17.4092Z" fill="#4464B4"/>
<path fill-rule="evenodd" clip-rule="evenodd" d="M9.87354 1.66701C10.1931 1.13552 10.0035 0.455914 9.45 0.14906C8.89654 -0.157793 8.18885 0.0243071 7.86931 0.555793L4.7836 5.68828C4.73737 5.76517 4.7018 5.84516 4.67644 5.92667H4.24286C1.89959 5.92667 0 7.75087 0 10.0011C0 11.274 0.607834 12.4106 1.55997 13.1578L2.58897 19.9505L3.27823 23.0518C3.6912 24.9099 5.27076 26.3213 7.23039 26.5831C11.3901 27.139 15.6099 27.139 19.7696 26.5831C21.7292 26.3213 23.3088 24.9099 23.7218 23.0518L24.411 19.9505L25.44 13.1578C26.3922 12.4106 27 11.274 27 10.0011C27 7.75087 25.1004 5.92667 22.7571 5.92667H22.3236C22.2982 5.84516 22.2626 5.76517 22.2164 5.68828L19.1307 0.555793C18.8112 0.0243071 18.1035 -0.157793 17.55 0.14906C16.9965 0.455914 16.8069 1.13552 17.1265 1.66701L19.6874 5.92667H7.31258L9.87354 1.66701ZM22.9631 14.0709C22.8948 14.074 22.8262 14.0756 22.7571 14.0756H4.24286C4.17382 14.0756 4.10517 14.074 4.03694 14.0709L4.86818 19.5582L5.54154 22.5879C5.75134 23.5319 6.55379 24.2489 7.54933 24.3819C11.4974 24.9095 15.5026 24.9095 19.4507 24.3819C20.4462 24.2489 21.2487 23.5319 21.4585 22.5879L22.1318 19.5582L22.9631 14.0709ZM2.31429 10.0011C2.31429 8.97828 3.17774 8.1491 4.24286 8.1491H22.7571C23.8223 8.1491 24.6857 8.97828 24.6857 10.0011C24.6857 11.024 23.8223 11.8532 22.7571 11.8532H4.24286C3.17774 11.8532 2.31429 11.024 2.31429 10.0011Z" fill="#4464B4"/>
</svg>
