<svg width="398" height="370" viewBox="0 0 398 370" fill="none" xmlns="http://www.w3.org/2000/svg">
<path d="M244.471 105.397C213.669 104.556 164.46 128.745 138.543 161.053C98.8162 210.569 60.6238 186.299 23.6657 219.833C-4.28761 245.204 -13.0536 299.99 28.5222 328.405C70.098 356.819 141.926 326.328 184.38 343.545C226.834 360.761 264.852 374.889 308.035 368.386C357.616 360.935 401.377 316.154 393.291 236.127C382.951 133.747 310.216 107.19 244.471 105.397Z" fill="#E1ECFF"/>
<path d="M362.8 254.1C362.8 254.1 388.657 265.512 390.174 287.69C391.522 307.392 381.153 327.615 362.8 337.065C341.832 347.838 332.726 329.914 339.363 318.582C346 307.25 382.918 289.848 357.822 267.564C357.822 258.041 362.8 254.1 362.8 254.1Z" fill="#F774B9"/>
<path opacity="0.58" d="M99.844 251.445C90.6774 250.482 73.7888 250.882 64.6748 253.25C56.3701 255.407 48.4864 264.986 61.0324 269.438C73.5784 273.89 63.1409 279.35 46.4628 280.147C29.7847 280.944 22.3057 291.94 34.0423 298.039C45.7789 304.138 69.7053 304.514 89.532 304.514C109.359 304.514 134.997 301.435 145.823 294.943C156.649 288.451 148.328 282.292 144.568 280.584C140.809 278.876 137.162 278.475 138.186 275.8C139.21 273.125 143.852 265.33 137.008 259.312C125.414 249.138 109.666 252.481 99.844 251.445Z" fill="#99ADF9"/>
<path d="M189.318 239.664C189.318 239.664 188.532 256.823 187.116 258.867C185.699 260.911 172.951 264.456 172.247 268.471C171.543 272.486 171.62 279.491 178.071 280.75C184.522 282.008 198.306 281.697 201.839 281.559C205.372 281.422 212.698 271.482 215.923 248.814C196.72 240.044 189.318 239.664 189.318 239.664Z" fill="#F774B9"/>
<path d="M222.807 24.9288C222.807 24.9288 213.163 6.57121 206.425 2.32175C199.686 -1.9277 195.222 0.144415 193.567 4.60432C191.912 9.06422 191.491 27.0009 191.491 27.0009C191.491 27.0009 172.826 44.3185 165.776 63.5017C158.726 82.685 157.167 121.574 201.653 126.75C246.139 131.926 291.976 117.219 311.58 103.944C305.145 71.4866 296.019 29.1783 293.943 17.4781C291.867 5.77797 285.444 -0.0255641 278.39 0.0149069C271.336 0.0553778 262.61 16.4259 259.931 26.3817C241.371 24.2004 222.807 24.9288 222.807 24.9288Z" fill="#FF97C9"/>
<path opacity="0.3" d="M264.889 27.3814C264.889 27.3814 271.028 7.57486 276.37 7.68008C281.154 7.77317 283.368 22.6543 283.768 29.9836C283.782 30.2441 283.736 30.5042 283.633 30.7439C283.53 30.9835 283.373 31.1962 283.175 31.3653C282.976 31.5345 282.741 31.6556 282.489 31.7191C282.236 31.7827 281.971 31.7871 281.717 31.732C275.193 30.3398 264.889 27.3814 264.889 27.3814Z" fill="white"/>
<path opacity="0.3" d="M191.381 27.0696C191.381 27.0696 190.879 6.18256 195.323 4.62038C199.836 3.02987 207.06 16.2396 209.982 22.9861C210.084 23.226 210.13 23.4862 210.116 23.7467C210.102 24.0072 210.028 24.261 209.9 24.4883C209.772 24.7157 209.594 24.9105 209.378 25.0578C209.163 25.205 208.917 25.3007 208.658 25.3375C202.062 26.2845 191.381 27.0696 191.381 27.0696Z" fill="white"/>
<path d="M311.581 103.944C314.746 116.701 333.565 150.607 345.074 169.276C356.584 187.946 366.751 211.366 366.119 240.963C365.488 270.559 354.326 278.641 338.858 283.133C323.39 287.626 313.855 286.371 304.863 287.561C295.87 288.751 286.477 292.608 280.39 287.561C274.303 282.514 271.126 279.54 264.351 283.065C257.576 286.59 240.364 285.622 235.872 284.449C231.379 283.275 229.166 274.286 236.681 269.653C224.374 273.594 192.972 269.984 185.453 239.583C179.439 215.211 197.594 164.825 201.641 153.307C205.781 141.489 207.655 134.949 205.373 124.269C220.424 120.019 311.581 103.944 311.581 103.944Z" fill="#FF97C9"/>
<path d="M324.43 132.95C324.43 132.95 308.201 150.628 311.58 168.653C313.927 181.224 329.416 188.148 331.075 198.934C332.734 209.719 344.56 227.668 364.468 218.392C361.971 187.525 324.43 132.95 324.43 132.95Z" fill="#F774B9"/>
<g style="mix-blend-mode:multiply" opacity="0.19">
<path d="M351.602 179.257C351.602 179.257 364.893 260.304 314.692 286.865C349.635 308.052 397.229 243.966 397.229 243.966L351.602 179.257Z" fill="#FF97C9"/>
</g>
<path d="M277.908 249.608C277.908 249.608 278.718 266.957 293.805 269.794C291.871 273.732 278.115 271.106 277.491 284.862C274.934 283.3 271.753 279.54 264.354 283.065C274.379 266.197 277.908 249.608 277.908 249.608Z" fill="#F774B9"/>
<path opacity="0.3" d="M200.69 142.91C200.69 142.91 205.854 138.32 220.926 140.482C235.997 142.643 255.16 186.007 252.707 211.917C250.255 237.826 253.468 267.743 229.497 273.372C205.595 282.652 154.148 247.353 154.148 247.353L200.69 142.91Z" fill="white"/>
<path d="M252.169 183.777C252.193 198.796 250.829 213.758 249.368 228.7C248.644 236.13 247.984 243.585 246.657 250.959C245.677 256.374 244.492 266.083 237.514 266.981C235.224 267.277 235.191 270.923 237.514 270.624C244.508 269.721 247.632 263.424 249.089 257.208C250.914 249.421 251.756 241.424 252.545 233.472C254.164 216.963 255.836 200.419 255.811 183.806C255.811 181.462 252.169 181.458 252.169 183.806V183.777Z" fill="#F774B9"/>
<path d="M283.137 212.953C282 224.799 279.463 236.454 276.217 247.891C274.598 253.521 272.846 259.102 270.98 264.646C270.049 267.417 269.097 270.183 268.123 272.943C267.18 275.622 266.269 278.358 264.318 280.495C262.74 282.223 265.31 284.805 266.892 283.069C270.729 278.868 272.093 272.68 273.882 267.423C275.905 261.522 277.799 255.585 279.519 249.591C282.959 237.6 285.59 225.381 286.78 212.953C287.006 210.622 283.36 210.638 283.137 212.953Z" fill="#F774B9"/>
<path d="M301.653 210.363C295.987 213.082 290.629 217.805 286.46 222.468C282.292 227.13 279.859 232.869 278.491 238.903C277.124 244.937 275.837 251.979 278.196 257.924C280.187 262.939 284.222 266.965 288.957 269.462C295.461 272.894 302.968 273.534 310.2 273.425C312.54 273.392 312.548 269.75 310.2 269.782C302.948 269.891 295.271 269.297 289.002 265.274C283.069 261.465 280.131 255.561 280.665 248.547C281.199 241.533 282.818 233.977 286.735 228.02C288.759 224.932 291.523 222.443 294.283 220.027C297.136 217.526 300.046 215.171 303.482 213.511C305.595 212.496 303.749 209.355 301.645 210.367L301.653 210.363Z" fill="#F774B9"/>
<path d="M295.635 269.038C290.936 270.859 286.043 272.445 281.47 274.566C279.748 275.343 278.31 276.635 277.355 278.265C276.4 279.895 275.976 281.782 276.14 283.664C276.346 285.979 279.989 285.999 279.782 283.664C279.418 279.584 282.243 278.115 285.554 276.832L296.606 272.55C298.771 271.713 297.82 268.188 295.639 269.038H295.635Z" fill="#F774B9"/>
<path d="M237.519 275.999C236.465 278.243 236.018 280.724 236.224 283.194C236.438 285.509 240.08 285.534 239.866 283.194C239.662 281.368 239.941 279.52 240.675 277.836C241.08 276.933 240.93 275.889 240.024 275.347C239.247 274.882 237.935 275.104 237.531 275.999H237.519Z" fill="#F774B9"/>
<path d="M249.603 276.217C248.353 278.617 248.256 281.211 248.337 283.862C248.405 286.201 252.048 286.209 251.979 283.862C251.918 281.903 251.817 279.847 252.748 278.058C253.829 275.978 250.688 274.137 249.603 276.217Z" fill="#F774B9"/>
<path d="M206.012 127.822C206.012 127.822 262.42 132.565 311.572 103.944C314.235 111.634 317.865 119.809 317.865 119.809C317.865 119.809 268.968 149.486 205.295 141.566C203.009 137.794 206.012 127.822 206.012 127.822Z" fill="#738DE0"/>
<path d="M181.746 66.1282C183.179 64.8736 195.328 64.5741 196.607 65.3713C197.886 66.1686 196.469 74.7728 189.176 74.7728C181.883 74.7728 180.637 67.0995 181.746 66.1282Z" fill="#1C3177"/>
<path d="M234.006 66.1282C235.442 64.8736 247.592 64.5741 248.871 65.3713C250.149 66.1686 248.733 74.7728 241.44 74.7728C234.147 74.7728 232.901 67.0995 234.006 66.1282Z" fill="#1C3177"/>
<path d="M207.946 101.253C207.946 101.253 211.747 91.645 214.017 91.8514C216.287 92.0578 221.496 101.253 221.496 101.253" stroke="#1C3177" stroke-width="9" stroke-miterlimit="10" stroke-linecap="round"/>
<path d="M155.819 85.028C160.658 84.8417 165.503 84.9228 170.332 85.2708C172.672 85.4408 172.663 81.7984 170.332 81.6284C165.503 81.2804 160.658 81.1993 155.819 81.3856C153.484 81.4746 153.472 85.117 155.819 85.028Z" fill="#F774B9"/>
<path d="M157.443 103.009C161.47 101.205 165.59 99.6146 169.786 98.2459C172.004 97.5215 171.057 94.0046 168.819 94.7371C164.327 96.2115 159.917 97.9217 155.605 99.8607C153.472 100.82 155.322 103.96 157.443 103.009Z" fill="#F774B9"/>
<path d="M256.864 85.7404C260.863 83.3247 265.049 81.2324 269.381 79.4836C271.53 78.6216 270.595 75.1006 268.414 75.9707C263.782 77.8187 259.305 80.0341 255.026 82.5958C253.003 83.81 254.848 86.9505 256.864 85.7404Z" fill="#F774B9"/>
<path d="M258.267 95.923C262.412 96.1699 266.54 96.5868 270.647 97.1979C272.938 97.5378 273.93 94.029 271.615 93.685C267.163 93.0253 262.735 92.5477 258.259 92.2806C255.916 92.139 255.924 95.7814 258.259 95.923H258.267Z" fill="#F774B9"/>
<path d="M211.763 25.8071C215.113 25.4431 218.486 25.3335 221.853 25.4793C224.196 25.5805 224.192 21.9381 221.853 21.8369C218.486 21.6911 215.113 21.8007 211.763 22.1647C209.46 22.4156 209.432 26.0621 211.763 25.8071Z" fill="#F774B9"/>
<path d="M261.485 27.2559C263.91 27.2978 266.305 27.7934 268.547 28.7169C270.72 29.591 271.663 26.0701 269.514 25.204C266.96 24.1801 264.237 23.6408 261.485 23.6135C259.142 23.5771 259.142 27.2194 261.485 27.2559Z" fill="#F774B9"/>
<path d="M207.946 161.393C214.168 161.393 219.213 156.671 219.213 150.846C219.213 145.021 214.168 140.299 207.946 140.299C201.723 140.299 196.679 145.021 196.679 150.846C196.679 156.671 201.723 161.393 207.946 161.393Z" fill="#FFD3B3"/>
<path d="M211.814 150.585C212.025 149.019 209.918 147.441 207.107 147.062C204.296 146.682 201.846 147.644 201.635 149.21C201.423 150.776 203.531 152.353 206.342 152.733C209.152 153.113 211.603 152.151 211.814 150.585Z" fill="#1C3177"/>
<path d="M206.733 150.263C205.263 154.117 204.811 158.285 205.422 162.364" stroke="#1C3177" stroke-width="7" stroke-miterlimit="10"/>
<path d="M56.209 289.84L82.1913 319.209L96.3036 313.098L86.0968 308.007L89.3102 293.648L56.209 289.84Z" fill="#738DE0"/>
<path d="M109.343 293.968L120.889 283.332L127.118 295.028L109.343 293.968Z" fill="#738DE0"/>
<path d="M76.2539 229.255L150.057 237.312C150.057 237.312 158.187 256.459 149.413 270.134L93.1586 273.639L97.4162 261.635L87.9986 258.446L95.4048 241.975L76.2539 229.255Z" fill="#738DE0"/>
</svg>
