<svg width="54" height="50" viewBox="0 0 54 50" fill="none" xmlns="http://www.w3.org/2000/svg">
<path d="M29.243 1.30799C28.2436 -0.435992 25.7564 -0.435999 24.757 1.30799L17.7186 13.59C17.2249 14.4515 16.3716 15.0394 15.3989 15.1882L2.20859 17.2055C-0.00682609 17.5443 -0.783934 20.3766 0.941404 21.8239L10.7677 30.0672C11.6772 30.8302 12.1049 32.0338 11.884 33.2087L9.31358 46.8768C8.90725 49.0374 11.1473 50.7162 13.0693 49.6915L25.4897 43.0695C26.4351 42.5654 27.5649 42.5654 28.5103 43.0695L40.9307 49.6915C42.8527 50.7162 45.0928 49.0374 44.6864 46.8768L42.116 33.2087C41.8951 32.0338 42.3228 30.8302 43.2323 30.0672L53.0586 21.8239C54.7839 20.3766 54.0068 17.5443 51.7914 17.2055L38.6011 15.1882C37.6284 15.0394 36.7751 14.4515 36.2814 13.59L29.243 1.30799Z" fill="#4464B4"/>
</svg>
