<svg width="15" height="15" viewBox="0 0 15 15" fill="none" xmlns="http://www.w3.org/2000/svg">
<path fill-rule="evenodd" clip-rule="evenodd" d="M0.0753723 14.6169C0.0137505 14.8415 0.217474 15.0487 0.441953 14.9899L3.91205 14.0799C5.00742 14.6756 6.24066 14.992 7.49629 14.992H7.5C11.6319 14.992 15 11.6303 15 7.4979C15 5.495 14.2212 3.61119 12.8055 2.19646C11.3897 0.781803 9.50816 0 7.49994 0C3.36814 0 4.77722e-07 3.36175 4.77722e-07 7.49419C-0.000469048 8.80881 0.345173 10.1004 1.00223 11.2394L0.0753723 14.6169ZM5.12293 3.90904C5.26073 3.91274 5.41351 3.92022 5.55886 4.24413C5.65524 4.45976 5.81761 4.85672 5.94987 5.18009C6.0528 5.43172 6.13749 5.63878 6.15868 5.68117C6.20711 5.77795 6.23692 5.88963 6.17359 6.01991C6.16612 6.03527 6.15907 6.04997 6.15228 6.06412C6.10147 6.16997 6.06531 6.2453 5.97987 6.34381C5.94474 6.38429 5.90814 6.42869 5.87168 6.47292C5.80756 6.55072 5.74385 6.62801 5.68924 6.68262C5.59238 6.77933 5.49175 6.88366 5.60351 7.07723C5.71534 7.27079 6.10654 7.90742 6.68404 8.42119C7.3049 8.97609 7.84478 9.20995 8.11768 9.32815C8.17067 9.35111 8.21359 9.3697 8.24509 9.38543C8.43887 9.48222 8.55434 9.46732 8.6661 9.33704C8.77793 9.2067 9.15046 8.77111 9.2809 8.57755C9.40757 8.38398 9.53795 8.41377 9.71682 8.48076C9.89563 8.54776 10.8494 9.01684 11.0431 9.11362C11.0814 9.13276 11.1173 9.15001 11.1505 9.16599C11.2853 9.23088 11.3769 9.27499 11.4157 9.34075C11.4642 9.42264 11.4642 9.80983 11.304 10.264C11.1401 10.7182 10.3502 11.1538 9.99249 11.1873C9.95862 11.1905 9.92493 11.1946 9.89024 11.1988C9.56246 11.2386 9.14635 11.2891 7.66388 10.7033C5.83716 9.98215 4.63132 8.19287 4.38753 7.83113C4.36828 7.80257 4.35503 7.78291 4.34794 7.77337L4.34382 7.76783C4.23291 7.61884 3.55434 6.70731 3.55434 5.76683C3.55434 4.86702 3.99586 4.39856 4.19725 4.18488C4.21001 4.17134 4.22181 4.15882 4.23247 4.14728C4.41128 3.95372 4.61997 3.90533 4.75035 3.90533C4.88079 3.90533 5.01117 3.90533 5.12293 3.90904Z" fill="#4464B4"/>
</svg>
